<svg width="122" height="58" viewBox="0 0 122 58" fill="none" xmlns="http://www.w3.org/2000/svg">
<path d="M18.8125 17.8537L12.4404 0.4953H10.2725L3.95898 17.59C3.65625 18.4201 3.38281 19.0451 3.13867 19.465C2.89453 19.8752 2.60156 20.1682 2.25977 20.3439C1.91797 20.5099 1.43457 20.6271 0.80957 20.6955V21.6476H7.34277V20.6955C6.57129 20.5978 6.01465 20.4611 5.67285 20.2853C5.33105 20.0998 5.16016 19.8068 5.16016 19.4064C5.16016 19.006 5.29199 18.425 5.55566 17.6633L10.668 2.91229H10.2432L15.502 17.8391C15.7559 18.5422 15.873 19.0842 15.8535 19.465C15.8438 19.8459 15.668 20.1242 15.3262 20.3C14.9941 20.4758 14.4521 20.6076 13.7002 20.6955V21.6476H21.8301V20.6955C21.2539 20.6271 20.7949 20.5148 20.4531 20.3586C20.1113 20.2023 19.8184 19.9338 19.5742 19.5529C19.3398 19.1623 19.0859 18.5959 18.8125 17.8537ZM6.1123 14.2502H15.6191L15.165 13.0637H6.55176L6.1123 14.2502ZM67.1377 36.4953H52.0059V37.4474C52.7285 37.5158 53.2607 37.6086 53.6025 37.7258C53.9541 37.843 54.1787 38.0187 54.2764 38.2531C54.3838 38.4777 54.4375 38.8098 54.4375 39.2492V54.8937C54.4375 55.3332 54.3838 55.6701 54.2764 55.9045C54.1787 56.1291 53.9541 56.3 53.6025 56.4172C53.2607 56.5344 52.7285 56.6271 52.0059 56.6955V57.6476H60.209V56.6955C59.4277 56.6174 58.8467 56.5148 58.4658 56.3879C58.0947 56.2609 57.8506 56.0705 57.7334 55.8166C57.6162 55.5529 57.5576 55.1818 57.5576 54.7033V47.4816L61.3955 47.4963C61.8154 47.506 62.1475 47.5842 62.3916 47.7307C62.6455 47.8771 62.8457 48.1652 62.9922 48.5949C63.1484 49.0148 63.2949 49.6349 63.4316 50.4553H64.252V43.3947H63.4316C63.2656 44.2248 63.0996 44.8498 62.9336 45.2697C62.7773 45.6896 62.582 45.9728 62.3477 46.1193C62.123 46.2658 61.8057 46.3391 61.3955 46.3391L57.5576 46.3683V37.5939L61.0732 37.7111C62.2354 37.7502 63.1631 37.882 63.8564 38.1066C64.5596 38.3215 65.1064 38.7072 65.4971 39.2639C65.8877 39.8107 66.2051 40.6164 66.4492 41.6808H67.3135L67.1377 36.4953Z" fill="#9B9785"/>
<path d="M27.3379 21.9553C28.0508 21.9553 28.7148 21.8576 29.3301 21.6623C29.9551 21.467 30.4971 21.2082 30.9561 20.8859C31.4248 20.5539 31.8008 20.1974 32.084 19.8166C32.1816 20.2658 32.3574 20.6418 32.6113 20.9445C32.8652 21.2473 33.1826 21.4767 33.5635 21.633C33.9443 21.7892 34.3789 21.8674 34.8672 21.8674C35.375 21.8674 35.8242 21.799 36.2148 21.6623C36.6152 21.5256 36.9375 21.3742 37.1816 21.2082V20.3293C36.9766 20.4269 36.7129 20.4758 36.3906 20.4758C35.9512 20.4758 35.5752 20.3391 35.2627 20.0656C34.9502 19.7922 34.7939 19.3283 34.7939 18.674V11.3351C34.7939 9.78241 34.3057 8.64471 33.3291 7.92206C32.3525 7.18964 31.0488 6.82343 29.418 6.82343C28.334 6.82343 27.3428 6.96503 26.4443 7.24823C25.5557 7.53143 24.8428 7.92694 24.3057 8.43475C23.7686 8.9328 23.5 9.50897 23.5 10.1633C23.5 10.6223 23.6562 11.0031 23.9688 11.3058C24.291 11.5988 24.6768 11.7453 25.126 11.7453C25.585 11.7453 25.9707 11.6037 26.2832 11.3205C26.5957 11.0275 26.752 10.6613 26.752 10.2219C26.752 9.79218 26.6055 9.42596 26.3125 9.12323C26.0293 8.8205 25.6875 8.66913 25.2871 8.66913C24.916 8.66913 24.5889 8.84491 24.3057 9.19647C24.0225 9.53827 23.8809 9.95331 23.8809 10.4416H24.5107C24.6475 9.93378 24.8965 9.51385 25.2578 9.18182C25.6289 8.84003 26.083 8.58612 26.6201 8.4201C27.167 8.24432 27.7627 8.15643 28.4072 8.15643C29.4717 8.15643 30.3359 8.4201 31 8.94745C31.6641 9.47479 31.9961 10.4025 31.9961 11.7307V18.8498C31.6641 19.3283 31.2197 19.7043 30.6631 19.9777C30.1064 20.2512 29.4814 20.3879 28.7881 20.3879C27.958 20.3879 27.2744 20.1584 26.7373 19.6994C26.21 19.2404 25.9463 18.6008 25.9463 17.7805C25.9463 17.2336 26.0732 16.7599 26.3271 16.3596C26.5811 15.9592 27.001 15.6174 27.5869 15.3342C28.1729 15.0412 28.9541 14.7873 29.9307 14.5724L33.1973 13.8693V12.7267L28.6416 13.7228C27.3232 14.006 26.2539 14.3527 25.4336 14.7629C24.6133 15.173 24.0078 15.6662 23.6172 16.2424C23.2363 16.8185 23.0459 17.4973 23.0459 18.2785C23.0459 19.3527 23.4512 20.2365 24.2617 20.9299C25.082 21.6135 26.1074 21.9553 27.3379 21.9553ZM39.1299 10.9396C39.1299 12.0822 39.5156 12.9904 40.2871 13.6642C41.0684 14.3381 42.123 14.8654 43.4512 15.2463L44.623 15.5685C45.6484 15.8615 46.3809 16.2082 46.8203 16.6086C47.2695 17.009 47.4941 17.5461 47.4941 18.2199C47.4941 18.9133 47.2109 19.4846 46.6445 19.9338C46.0781 20.383 45.3115 20.6076 44.3447 20.6076C43.6514 20.6076 42.9922 20.4709 42.3672 20.1974C41.752 19.924 41.2197 19.509 40.7705 18.9523C40.3311 18.3957 40.0234 17.6926 39.8477 16.843H38.9688L39.1006 20.6076C39.4424 20.8517 39.8818 21.0715 40.4189 21.2668C40.9561 21.4621 41.5566 21.6135 42.2207 21.7209C42.8945 21.8381 43.6123 21.8967 44.374 21.8967C45.3896 21.8967 46.3271 21.7258 47.1865 21.384C48.0459 21.0324 48.7344 20.5392 49.252 19.9045C49.7695 19.2599 50.0283 18.5031 50.0283 17.634C50.0283 16.4426 49.6523 15.5002 48.9004 14.8068C48.1484 14.1037 47.1035 13.5617 45.7656 13.1808L44.5938 12.8439C43.6758 12.59 42.9531 12.2775 42.4258 11.9064C41.9082 11.5353 41.6494 11.0129 41.6494 10.3391C41.6494 9.65546 41.9277 9.11346 42.4844 8.71307C43.041 8.31268 43.7783 8.11249 44.6963 8.11249C45.6631 8.11249 46.498 8.40546 47.2012 8.99139C47.9141 9.56757 48.373 10.4074 48.5781 11.5109H49.457L49.3545 7.87811C48.9541 7.60468 48.3486 7.36053 47.5381 7.14569C46.7373 6.93085 45.7852 6.82343 44.6816 6.82343C43.5781 6.82343 42.6064 6.98456 41.7666 7.30682C40.9365 7.62909 40.2871 8.09784 39.8184 8.71307C39.3594 9.32831 39.1299 10.0705 39.1299 10.9396ZM57.2207 6.96991L52.3135 7.5412V8.37616L53.4121 8.65448C53.8223 8.7619 54.0811 8.88885 54.1885 9.03534C54.3057 9.18182 54.3643 9.45038 54.3643 9.841V19.3625C54.3643 19.8215 54.252 20.134 54.0273 20.3C53.8027 20.466 53.2314 20.5978 52.3135 20.6955V21.6476H59.2715V20.6955C58.3633 20.5978 57.792 20.466 57.5576 20.3C57.333 20.134 57.2207 19.8215 57.2207 19.3625V6.96991ZM55.4922 4.01093C55.9902 4.01093 56.415 3.84003 56.7666 3.49823C57.1279 3.15643 57.3086 2.73651 57.3086 2.23846C57.3086 1.73065 57.1279 1.31073 56.7666 0.978699C56.415 0.636902 55.9902 0.466003 55.4922 0.466003C54.9941 0.466003 54.5645 0.636902 54.2031 0.978699C53.8516 1.31073 53.6758 1.73065 53.6758 2.23846C53.6758 2.73651 53.8516 3.15643 54.2031 3.49823C54.5645 3.84003 54.9941 4.01093 55.4922 4.01093ZM62.1865 10.4123L66.6982 21.5012C66.3076 22.2726 65.8877 23.0783 65.4385 23.9182C64.999 24.758 64.5645 25.5637 64.1348 26.3351C63.7051 27.1066 63.3193 27.7707 62.9775 28.3273V28.3859H65.541L67.9434 21.6623L69.0566 18.9377L72.499 10.5734C72.7725 9.88983 73.0166 9.3869 73.2314 9.06464C73.4463 8.7326 73.6904 8.50311 73.9639 8.37616C74.2373 8.23944 74.6084 8.1369 75.0771 8.06854V7.11639H69.5547V8.06854C70.1992 8.12714 70.6729 8.22479 70.9756 8.36151C71.2881 8.48846 71.4541 8.70819 71.4736 9.02069C71.5029 9.32343 71.4053 9.76288 71.1807 10.3391L67.8408 18.9377H68.3975L65.1602 10.3098C64.8477 9.46014 64.7988 8.89862 65.0137 8.62518C65.2285 8.35175 65.8193 8.1662 66.7861 8.06854V7.11639H59.7109V8.06854C60.1699 8.1662 60.5361 8.28339 60.8096 8.4201C61.083 8.55682 61.3223 8.77655 61.5273 9.07928C61.7324 9.38202 61.9521 9.82635 62.1865 10.4123ZM80.1309 21.9553C80.8438 21.9553 81.5078 21.8576 82.123 21.6623C82.748 21.467 83.29 21.2082 83.749 20.8859C84.2178 20.5539 84.5938 20.1974 84.877 19.8166C84.9746 20.2658 85.1504 20.6418 85.4043 20.9445C85.6582 21.2473 85.9756 21.4767 86.3564 21.633C86.7373 21.7892 87.1719 21.8674 87.6602 21.8674C88.168 21.8674 88.6172 21.799 89.0078 21.6623C89.4082 21.5256 89.7305 21.3742 89.9746 21.2082V20.3293C89.7695 20.4269 89.5059 20.4758 89.1836 20.4758C88.7441 20.4758 88.3682 20.3391 88.0557 20.0656C87.7432 19.7922 87.5869 19.3283 87.5869 18.674V11.3351C87.5869 9.78241 87.0986 8.64471 86.1221 7.92206C85.1455 7.18964 83.8418 6.82343 82.2109 6.82343C81.127 6.82343 80.1357 6.96503 79.2373 7.24823C78.3486 7.53143 77.6357 7.92694 77.0986 8.43475C76.5615 8.9328 76.293 9.50897 76.293 10.1633C76.293 10.6223 76.4492 11.0031 76.7617 11.3058C77.084 11.5988 77.4697 11.7453 77.9189 11.7453C78.3779 11.7453 78.7637 11.6037 79.0762 11.3205C79.3887 11.0275 79.5449 10.6613 79.5449 10.2219C79.5449 9.79218 79.3984 9.42596 79.1055 9.12323C78.8223 8.8205 78.4805 8.66913 78.0801 8.66913C77.709 8.66913 77.3818 8.84491 77.0986 9.19647C76.8154 9.53827 76.6738 9.95331 76.6738 10.4416H77.3037C77.4404 9.93378 77.6895 9.51385 78.0508 9.18182C78.4219 8.84003 78.876 8.58612 79.4131 8.4201C79.96 8.24432 80.5557 8.15643 81.2002 8.15643C82.2646 8.15643 83.1289 8.4201 83.793 8.94745C84.457 9.47479 84.7891 10.4025 84.7891 11.7307V18.8498C84.457 19.3283 84.0127 19.7043 83.4561 19.9777C82.8994 20.2512 82.2744 20.3879 81.5811 20.3879C80.751 20.3879 80.0674 20.1584 79.5303 19.6994C79.0029 19.2404 78.7393 18.6008 78.7393 17.7805C78.7393 17.2336 78.8662 16.7599 79.1201 16.3596C79.374 15.9592 79.7939 15.6174 80.3799 15.3342C80.9658 15.0412 81.7471 14.7873 82.7236 14.5724L85.9902 13.8693V12.7267L81.4346 13.7228C80.1162 14.006 79.0469 14.3527 78.2266 14.7629C77.4062 15.173 76.8008 15.6662 76.4102 16.2424C76.0293 16.8185 75.8389 17.4973 75.8389 18.2785C75.8389 19.3527 76.2441 20.2365 77.0547 20.9299C77.875 21.6135 78.9004 21.9553 80.1309 21.9553ZM73.7148 57.9553C74.4277 57.9553 75.0918 57.8576 75.707 57.6623C76.332 57.467 76.874 57.2082 77.333 56.8859C77.8018 56.5539 78.1777 56.1974 78.4609 55.8166C78.5586 56.2658 78.7344 56.6418 78.9883 56.9445C79.2422 57.2473 79.5596 57.4767 79.9404 57.633C80.3213 57.7892 80.7559 57.8674 81.2441 57.8674C81.752 57.8674 82.2012 57.799 82.5918 57.6623C82.9922 57.5256 83.3145 57.3742 83.5586 57.2082V56.3293C83.3535 56.4269 83.0898 56.4758 82.7676 56.4758C82.3281 56.4758 81.9521 56.3391 81.6396 56.0656C81.3271 55.7922 81.1709 55.3283 81.1709 54.674V47.3351C81.1709 45.7824 80.6826 44.6447 79.7061 43.9221C78.7295 43.1896 77.4258 42.8234 75.7949 42.8234C74.7109 42.8234 73.7197 42.965 72.8213 43.2482C71.9326 43.5314 71.2197 43.9269 70.6826 44.4348C70.1455 44.9328 69.877 45.509 69.877 46.1633C69.877 46.6223 70.0332 47.0031 70.3457 47.3058C70.668 47.5988 71.0537 47.7453 71.5029 47.7453C71.9619 47.7453 72.3477 47.6037 72.6602 47.3205C72.9727 47.0275 73.1289 46.6613 73.1289 46.2219C73.1289 45.7922 72.9824 45.426 72.6895 45.1232C72.4062 44.8205 72.0645 44.6691 71.6641 44.6691C71.293 44.6691 70.9658 44.8449 70.6826 45.1965C70.3994 45.5383 70.2578 45.9533 70.2578 46.4416H70.8877C71.0244 45.9338 71.2734 45.5139 71.6348 45.1818C72.0059 44.84 72.46 44.5861 72.9971 44.4201C73.5439 44.2443 74.1396 44.1564 74.7842 44.1564C75.8486 44.1564 76.7129 44.4201 77.377 44.9474C78.041 45.4748 78.373 46.4025 78.373 47.7307V54.8498C78.041 55.3283 77.5967 55.7043 77.04 55.9777C76.4834 56.2512 75.8584 56.3879 75.165 56.3879C74.335 56.3879 73.6514 56.1584 73.1143 55.6994C72.5869 55.2404 72.3232 54.6008 72.3232 53.7805C72.3232 53.2336 72.4502 52.7599 72.7041 52.3596C72.958 51.9592 73.3779 51.6174 73.9639 51.3342C74.5498 51.0412 75.3311 50.7873 76.3076 50.5724L79.5742 49.8693V48.7267L75.0186 49.7228C73.7002 50.006 72.6309 50.3527 71.8105 50.7629C70.9902 51.173 70.3848 51.6662 69.9941 52.2424C69.6133 52.8185 69.4229 53.4973 69.4229 54.2785C69.4229 55.3527 69.8281 56.2365 70.6387 56.9299C71.459 57.6135 72.4844 57.9553 73.7148 57.9553ZM85.1406 43.1164L85.0088 47.3644H85.8877C86.0928 46.5344 86.332 45.9094 86.6055 45.4894C86.8789 45.0598 87.2451 44.7668 87.7041 44.6105C88.1729 44.4445 88.8076 44.3517 89.6084 44.3322L94.0908 44.1711L93.5635 43.5998L84.877 56.7834V57.6476H96.5518L96.6689 53.1066H95.8047C95.6191 54.0441 95.3848 54.7473 95.1016 55.216C94.8281 55.675 94.4717 55.9875 94.0322 56.1535C93.5928 56.3195 93.0264 56.4123 92.333 56.4318L87.2646 56.6076L87.8213 57.1203L96.5518 43.9807V43.1164H85.1406ZM103.275 57.9553C103.988 57.9553 104.652 57.8576 105.268 57.6623C105.893 57.467 106.435 57.2082 106.894 56.8859C107.362 56.5539 107.738 56.1974 108.021 55.8166C108.119 56.2658 108.295 56.6418 108.549 56.9445C108.803 57.2473 109.12 57.4767 109.501 57.633C109.882 57.7892 110.316 57.8674 110.805 57.8674C111.312 57.8674 111.762 57.799 112.152 57.6623C112.553 57.5256 112.875 57.3742 113.119 57.2082V56.3293C112.914 56.4269 112.65 56.4758 112.328 56.4758C111.889 56.4758 111.513 56.3391 111.2 56.0656C110.888 55.7922 110.731 55.3283 110.731 54.674V47.3351C110.731 45.7824 110.243 44.6447 109.267 43.9221C108.29 43.1896 106.986 42.8234 105.355 42.8234C104.271 42.8234 103.28 42.965 102.382 43.2482C101.493 43.5314 100.78 43.9269 100.243 44.4348C99.7061 44.9328 99.4375 45.509 99.4375 46.1633C99.4375 46.6223 99.5938 47.0031 99.9062 47.3058C100.229 47.5988 100.614 47.7453 101.063 47.7453C101.522 47.7453 101.908 47.6037 102.221 47.3205C102.533 47.0275 102.689 46.6613 102.689 46.2219C102.689 45.7922 102.543 45.426 102.25 45.1232C101.967 44.8205 101.625 44.6691 101.225 44.6691C100.854 44.6691 100.526 44.8449 100.243 45.1965C99.96 45.5383 99.8184 45.9533 99.8184 46.4416H100.448C100.585 45.9338 100.834 45.5139 101.195 45.1818C101.566 44.84 102.021 44.5861 102.558 44.4201C103.104 44.2443 103.7 44.1564 104.345 44.1564C105.409 44.1564 106.273 44.4201 106.938 44.9474C107.602 45.4748 107.934 46.4025 107.934 47.7307V54.8498C107.602 55.3283 107.157 55.7043 106.601 55.9777C106.044 56.2512 105.419 56.3879 104.726 56.3879C103.896 56.3879 103.212 56.1584 102.675 55.6994C102.147 55.2404 101.884 54.6008 101.884 53.7805C101.884 53.2336 102.011 52.7599 102.265 52.3596C102.519 51.9592 102.938 51.6174 103.524 51.3342C104.11 51.0412 104.892 50.7873 105.868 50.5724L109.135 49.8693V48.7267L104.579 49.7228C103.261 50.006 102.191 50.3527 101.371 50.7629C100.551 51.173 99.9453 51.6662 99.5547 52.2424C99.1738 52.8185 98.9834 53.4973 98.9834 54.2785C98.9834 55.3527 99.3887 56.2365 100.199 56.9299C101.02 57.6135 102.045 57.9553 103.275 57.9553ZM119.271 35.924L114.364 36.4953V37.3156L115.463 37.5939C115.873 37.7111 116.132 37.843 116.239 37.9894C116.356 38.1262 116.415 38.3947 116.415 38.7951V55.3625C116.415 55.8215 116.303 56.134 116.078 56.3C115.854 56.466 115.282 56.5978 114.364 56.6955V57.6476H121.322V56.6955C120.414 56.5978 119.843 56.466 119.608 56.3C119.384 56.134 119.271 55.8215 119.271 55.3625V35.924Z" fill="white"/>
</svg>
