<svg width="75" height="75" viewBox="0 0 75 75" fill="none" xmlns="http://www.w3.org/2000/svg">
<rect width="75" height="75" rx="14.8414" fill="#1E1E1E"/>
<g clip-path="url(#clip0_142_3841)">
<path d="M37.1035 37.1034C37.1035 35.0041 37.9635 32.9908 39.4943 31.5064C41.0251 30.0219 43.1014 29.188 45.2663 29.188C47.4312 29.188 49.5074 30.0219 51.0382 31.5064C52.569 32.9908 53.429 35.0041 53.429 37.1034C53.429 39.2027 52.569 41.216 51.0382 42.7004C49.5074 44.1848 47.4312 45.0188 45.2663 45.0188C43.1014 45.0188 41.0251 44.1848 39.4943 42.7004C37.9635 41.216 37.1035 39.2027 37.1035 37.1034Z" fill="#1ABCFE"/>
<path d="M20.7773 52.9335C20.7773 50.8342 21.6373 48.8209 23.1682 47.3364C24.699 45.852 26.7752 45.0181 28.9401 45.0181H37.1028V52.9335C37.1028 55.0327 36.2428 57.0461 34.712 58.5305C33.1812 60.0149 31.105 60.8488 28.9401 60.8488C26.7752 60.8488 24.699 60.0149 23.1682 58.5305C21.6373 57.0461 20.7773 55.0327 20.7773 52.9335V52.9335Z" fill="#0ACF83"/>
<path d="M37.1035 13.3572V29.188H45.2663C47.4312 29.188 49.5074 28.354 51.0382 26.8696C52.569 25.3852 53.429 23.3719 53.429 21.2726C53.429 19.1733 52.569 17.16 51.0382 15.6755C49.5074 14.1911 47.4312 13.3572 45.2663 13.3572H37.1035Z" fill="#FF7262"/>
<path d="M20.7773 21.2726C20.7773 23.3719 21.6373 25.3852 23.1682 26.8696C24.699 28.354 26.7752 29.188 28.9401 29.188H37.1028V13.3572H28.9401C26.7752 13.3572 24.699 14.1911 23.1682 15.6755C21.6373 17.16 20.7773 19.1733 20.7773 21.2726V21.2726Z" fill="#F24E1E"/>
<path d="M20.7773 37.1034C20.7773 39.2027 21.6373 41.216 23.1682 42.7004C24.699 44.1848 26.7752 45.0188 28.9401 45.0188H37.1028V29.188H28.9401C26.7752 29.188 24.699 30.0219 23.1682 31.5064C21.6373 32.9908 20.7773 35.0041 20.7773 37.1034V37.1034Z" fill="#A259FF"/>
</g>
<defs>
<clipPath id="clip0_142_3841">
<rect width="32.651" height="47.4923" fill="white" transform="translate(20.7773 13.3574)"/>
</clipPath>
</defs>
</svg>
