<svg width="51" height="50" viewBox="0 0 51 50" fill="none" xmlns="http://www.w3.org/2000/svg">
<rect x="0.5" width="50" height="50" rx="10" fill="#1E1E1E"/>
<g clip-path="url(#clip0_67_1267)">
<path d="M25.5 24.9999C25.5 23.5854 26.0795 22.2289 27.1109 21.2287C28.1424 20.2285 29.5413 19.6666 31 19.6666C32.4587 19.6666 33.8576 20.2285 34.8891 21.2287C35.9205 22.2289 36.5 23.5854 36.5 24.9999C36.5 26.4144 35.9205 27.7709 34.8891 28.7711C33.8576 29.7713 32.4587 30.3332 31 30.3332C29.5413 30.3332 28.1424 29.7713 27.1109 28.7711C26.0795 27.7709 25.5 26.4144 25.5 24.9999V24.9999Z" fill="#1ABCFE"/>
<path d="M14.5 35.6666C14.5 34.2521 15.0795 32.8955 16.1109 31.8953C17.1424 30.8952 18.5413 30.3333 20 30.3333H25.5V35.6666C25.5 37.0811 24.9205 38.4376 23.8891 39.4378C22.8576 40.438 21.4587 40.9999 20 40.9999C18.5413 40.9999 17.1424 40.438 16.1109 39.4378C15.0795 38.4376 14.5 37.0811 14.5 35.6666V35.6666Z" fill="#0ACF83"/>
<path d="M25.5 8.99988V19.6665H31C32.4587 19.6665 33.8576 19.1046 34.8891 18.1044C35.9205 17.1043 36.5 15.7477 36.5 14.3332C36.5 12.9187 35.9205 11.5622 34.8891 10.562C33.8576 9.56178 32.4587 8.99988 31 8.99988H25.5Z" fill="#FF7262"/>
<path d="M14.5 14.3333C14.5 15.7478 15.0795 17.1044 16.1109 18.1046C17.1424 19.1048 18.5413 19.6667 20 19.6667H25.5V9H20C18.5413 9 17.1424 9.5619 16.1109 10.5621C15.0795 11.5623 14.5 12.9188 14.5 14.3333V14.3333Z" fill="#F24E1E"/>
<path d="M14.5 24.9999C14.5 26.4144 15.0795 27.7709 16.1109 28.7711C17.1424 29.7713 18.5413 30.3332 20 30.3332H25.5V19.6666H20C18.5413 19.6666 17.1424 20.2285 16.1109 21.2287C15.0795 22.2289 14.5 23.5854 14.5 24.9999V24.9999Z" fill="#A259FF"/>
</g>
<defs>
<clipPath id="clip0_67_1267">
<rect width="22" height="32" fill="white" transform="translate(14.5 9)"/>
</clipPath>
</defs>
</svg>
