<svg width="59" height="58" viewBox="0 0 59 58" fill="none" xmlns="http://www.w3.org/2000/svg">
<g filter="url(#filter0_d_76_1364)">
<rect x="4.5" y="4" width="50" height="50" rx="10" fill="white"/>
</g>
<path d="M29.4996 14.6C21.5472 14.6 15.0996 21.0476 15.0996 29C15.0996 35.7476 19.746 41.3936 26.01 42.956C25.9428 42.7616 25.8996 42.536 25.8996 42.2564V39.7952C25.3152 39.7952 24.336 39.7952 24.09 39.7952C23.1048 39.7952 22.2288 39.3716 21.804 38.5844C21.3324 37.7096 21.2508 36.3716 20.082 35.5532C19.7352 35.2808 19.9992 34.97 20.3988 35.012C21.1368 35.2208 21.7488 35.7272 22.3248 36.4784C22.8984 37.2308 23.1684 37.4012 24.24 37.4012C24.7596 37.4012 25.5372 37.3712 26.2692 37.256C26.6628 36.2564 27.3432 35.336 28.1748 34.9016C23.3796 34.4084 21.0912 32.0228 21.0912 28.784C21.0912 27.3896 21.6852 26.0408 22.6944 24.9044C22.3632 23.7764 21.9468 21.476 22.8216 20.6C24.9792 20.6 26.2836 21.9992 26.5968 22.3772C27.672 22.0088 28.8528 21.8 30.0936 21.8C31.3368 21.8 32.5224 22.0088 33.6 22.3796C33.9096 22.004 35.2152 20.6 37.3776 20.6C38.256 21.4772 37.8348 23.7872 37.5 24.9128C38.5032 26.0468 39.0936 27.392 39.0936 28.784C39.0936 32.0204 36.8088 34.4048 32.0208 34.9004C33.3384 35.588 34.2996 37.52 34.2996 38.9756V42.2564C34.2996 42.3812 34.272 42.4712 34.2576 42.578C39.8688 40.6112 43.8996 35.2832 43.8996 29C43.8996 21.0476 37.452 14.6 29.4996 14.6Z" fill="black"/>
<defs>
<filter id="filter0_d_76_1364" x="0.5" y="0" width="58" height="58" filterUnits="userSpaceOnUse" color-interpolation-filters="sRGB">
<feFlood flood-opacity="0" result="BackgroundImageFix"/>
<feColorMatrix in="SourceAlpha" type="matrix" values="0 0 0 0 0 0 0 0 0 0 0 0 0 0 0 0 0 0 127 0" result="hardAlpha"/>
<feOffset/>
<feGaussianBlur stdDeviation="2"/>
<feComposite in2="hardAlpha" operator="out"/>
<feColorMatrix type="matrix" values="0 0 0 0 0 0 0 0 0 0 0 0 0 0 0 0 0 0 0.25 0"/>
<feBlend mode="normal" in2="BackgroundImageFix" result="effect1_dropShadow_76_1364"/>
<feBlend mode="normal" in="SourceGraphic" in2="effect1_dropShadow_76_1364" result="shape"/>
</filter>
</defs>
</svg>
