<svg width="78" height="77" viewBox="0 0 78 77" fill="none" xmlns="http://www.w3.org/2000/svg">
<rect x="1.0459" y="1" width="75" height="75" rx="14.8414" fill="white" stroke="black" stroke-opacity="0.3" stroke-width="2"/>
<path d="M38.546 16.9001C26.6176 16.9001 16.9463 26.5715 16.9463 38.5001C16.9463 48.6215 23.9158 57.0905 33.3117 59.4341C33.2109 59.1425 33.1461 58.8041 33.1461 58.3847V54.6929C32.2695 54.6929 30.8007 54.6929 30.4317 54.6929C28.9539 54.6929 27.6399 54.0575 27.0028 52.8767C26.2954 51.5645 26.173 49.5575 24.4198 48.3299C23.8996 47.9213 24.2956 47.4551 24.895 47.5181C26.002 47.8313 26.92 48.5909 27.7839 49.7177C28.6443 50.8463 29.0493 51.1019 30.6567 51.1019C31.4361 51.1019 32.6025 51.0569 33.7005 50.8841C34.2909 49.3847 35.3114 48.0041 36.5588 47.3525C29.3661 46.6127 25.9336 43.0343 25.9336 38.1761C25.9336 36.0845 26.8246 34.0613 28.3383 32.3567C27.8415 30.6647 27.217 27.2141 28.5291 25.9001C31.7655 25.9001 33.7221 27.9989 34.1919 28.5659C35.8046 28.0133 37.5758 27.7001 39.437 27.7001C41.3018 27.7001 43.0801 28.0133 44.6965 28.5695C45.1609 28.0061 47.1193 25.9001 50.3628 25.9001C51.6804 27.2159 51.0486 30.6809 50.5464 32.3693C52.0512 34.0703 52.9368 36.0881 52.9368 38.1761C52.9368 43.0307 49.5097 46.6073 42.3278 47.3507C44.3041 48.3821 45.7459 51.2801 45.7459 53.4635V58.3847C45.7459 58.5719 45.7045 58.7069 45.6829 58.8671C54.0996 55.9169 60.1457 47.9249 60.1457 38.5001C60.1457 26.5715 50.4744 16.9001 38.546 16.9001Z" fill="black"/>
</svg>
