<svg width="78" height="77" viewBox="0 0 78 77" fill="none" xmlns="http://www.w3.org/2000/svg">
<rect x="1.20312" y="1" width="75" height="75" rx="14.8414" fill="white" stroke="#0154CE" stroke-opacity="0.3" stroke-width="2"/>
<path d="M38.7043 47.1537L29.6944 38.4996L38.7043 29.8456V12L12.9724 36.7153C12.4798 37.1886 12.2031 37.8304 12.2031 38.4996C12.2031 39.1689 12.4798 39.8107 12.9724 40.2839L38.7043 64.9993C38.7043 64.9993 42.6457 62.4755 42.6457 56.1661C42.4418 52.8178 41.051 49.6374 38.7043 47.1537V47.1537Z" fill="#2684FF"/>
<path d="M31.1009 36.8175L31.2731 36.9829L38.7038 29.8456V12L24.7764 25.376C25.8236 29.6493 28.0021 33.5905 31.1009 36.8175V36.8175Z" fill="#1D78F2"/>
<path d="M33.0019 35.0736L33.1333 35.1998L38.7064 29.8469V12L27.0557 23.1879C27.7862 27.6227 29.8534 31.7548 33.0019 35.0736V35.0736Z" fill="#126AE5"/>
<path d="M38.7034 29.8456V12L29.5068 20.8332C29.7082 25.5214 31.6523 29.985 34.9867 33.4142L38.7034 29.8456Z" fill="#0B60DA"/>
<path d="M32.1358 20.8332C32.1358 26.8221 36.6118 31.3965 36.8457 31.6299L38.7047 29.8456V12L32.3696 18.0848C32.2125 18.9931 32.1343 19.9124 32.1358 20.8332V20.8332Z" fill="#0154CE"/>
<path d="M38.7031 29.8456L47.7117 38.4996L38.7031 47.1537V64.9993L64.4337 40.2839C64.9263 39.8107 65.203 39.1689 65.203 38.4996C65.203 37.8304 64.9263 37.1886 64.4337 36.7153L38.7031 12C38.7031 12 34.7617 14.5238 34.7617 20.8332C34.9656 24.1815 36.3565 27.3619 38.7031 29.8456V29.8456Z" fill="#2482FD"/>
<path d="M46.3047 40.1817L46.1326 40.0164L38.7031 47.1536V64.9992L52.6293 51.6232C51.5821 47.3499 49.4035 43.4088 46.3047 40.1817V40.1817Z" fill="#1D78F2"/>
<path d="M44.4024 41.9255L44.271 41.7993L38.6992 47.1522V64.9991L50.3473 53.8112C49.6167 49.3767 47.55 45.2448 44.4024 41.9255V41.9255Z" fill="#126AE5"/>
<path d="M38.7031 47.1538V64.9994L47.8997 56.1662C47.6981 51.4779 45.7534 47.0142 42.4185 43.5852L38.7031 47.1538Z" fill="#0B60DA"/>
<path d="M45.2721 56.1668C45.2721 50.1779 40.796 45.6036 40.5608 45.3701L38.7031 47.1544V65L45.0382 58.9152C45.1947 58.0068 45.2729 57.0876 45.2721 56.1668V56.1668Z" fill="#0154CE"/>
<path d="M38.7049 47.154L29.6949 38.5H15.0566V42.2857L38.7049 64.9996C38.7049 64.9996 42.6462 62.4759 42.6462 56.1664C42.4423 52.8182 41.0515 49.6378 38.7049 47.154V47.154Z" fill="#2684FF"/>
</svg>
