<svg width="59" height="58" viewBox="0 0 59 58" fill="none" xmlns="http://www.w3.org/2000/svg">
<g filter="url(#filter0_d_71_1349)">
<rect x="4.5" y="4" width="50" height="50" rx="10" fill="white"/>
</g>
<path d="M30.4381 36.0639L24.3148 29.9407L30.4381 23.8175V11.1907L12.9506 28.6782C12.6158 29.013 12.4277 29.4672 12.4277 29.9407C12.4277 30.4142 12.6158 30.8683 12.9506 31.2032L30.4381 48.6907C30.4381 48.6907 33.1166 46.9049 33.1166 42.4407C32.9781 40.0716 32.0328 37.8213 30.4381 36.0639V36.0639Z" fill="#2684FF"/>
<path d="M25.2709 28.7505L25.3878 28.8675L30.4378 23.8175V11.1907L20.9727 20.655C21.6844 23.6786 23.1649 26.4671 25.2709 28.7505V28.7505Z" fill="#1D78F2"/>
<path d="M26.5635 27.5166L26.6528 27.6058L30.4403 23.8183V11.1907L22.5225 19.1067C23.0189 22.2446 24.4238 25.1683 26.5635 27.5166V27.5166Z" fill="#126AE5"/>
<path d="M30.4385 23.8175V11.1907L24.1885 17.4407C24.3253 20.7578 25.6466 23.9161 27.9126 26.3425L30.4385 23.8175Z" fill="#0B60DA"/>
<path d="M25.9736 17.4407C25.9736 21.6782 29.0156 24.9148 29.1745 25.08L30.4379 23.8175V11.1907L26.1326 15.496C26.0258 16.1387 25.9726 16.7892 25.9736 17.4407V17.4407Z" fill="#0154CE"/>
<path d="M30.4383 23.8175L36.5607 29.9407L30.4383 36.0639V48.6907L47.9249 31.2032C48.2597 30.8683 48.4478 30.4142 48.4478 29.9407C48.4478 29.4672 48.2597 29.013 47.9249 28.6782L30.4383 11.1907C30.4383 11.1907 27.7598 12.9764 27.7598 17.4407C27.8983 19.8098 28.8436 22.0601 30.4383 23.8175V23.8175Z" fill="#2482FD"/>
<path d="M35.6045 31.1309L35.4876 31.0139L30.4385 36.0639V48.6907L39.9028 39.2264C39.1911 36.2028 37.7105 33.4142 35.6045 31.1309V31.1309Z" fill="#1D78F2"/>
<path d="M34.3114 32.3647L34.2222 32.2755L30.4355 36.0629V48.6906L38.3516 40.7746C37.8551 37.6369 36.4506 34.7133 34.3114 32.3647V32.3647Z" fill="#126AE5"/>
<path d="M30.4385 36.0639V48.6907L36.6885 42.4407C36.5515 39.1234 35.2299 35.9651 32.9635 33.5389L30.4385 36.0639Z" fill="#0B60DA"/>
<path d="M34.9028 42.4407C34.9028 38.2032 31.8608 34.9666 31.701 34.8014L30.4385 36.0639V48.6907L34.7438 44.3853C34.8502 43.7426 34.9033 43.0922 34.9028 42.4407V42.4407Z" fill="#0154CE"/>
<path d="M30.4376 36.0639L24.3144 29.9407H14.3662V32.6192L30.4376 48.6907C30.4376 48.6907 33.1162 46.905 33.1162 42.4407C32.9776 40.0716 32.0324 37.8213 30.4376 36.0639V36.0639Z" fill="#2684FF"/>
<defs>
<filter id="filter0_d_71_1349" x="0.5" y="0" width="58" height="58" filterUnits="userSpaceOnUse" color-interpolation-filters="sRGB">
<feFlood flood-opacity="0" result="BackgroundImageFix"/>
<feColorMatrix in="SourceAlpha" type="matrix" values="0 0 0 0 0 0 0 0 0 0 0 0 0 0 0 0 0 0 127 0" result="hardAlpha"/>
<feOffset/>
<feGaussianBlur stdDeviation="2"/>
<feComposite in2="hardAlpha" operator="out"/>
<feColorMatrix type="matrix" values="0 0 0 0 0 0 0 0 0 0 0 0 0 0 0 0 0 0 0.25 0"/>
<feBlend mode="normal" in2="BackgroundImageFix" result="effect1_dropShadow_71_1349"/>
<feBlend mode="normal" in="SourceGraphic" in2="effect1_dropShadow_71_1349" result="shape"/>
</filter>
</defs>
</svg>
