<svg width="76" height="75" viewBox="0 0 76 75" fill="none" xmlns="http://www.w3.org/2000/svg">
<rect x="0.0449219" width="75" height="75" rx="14.8414" fill="#F58411"/>
<g opacity="0.2">
<path d="M37.385 18.7498C37.3851 18.7497 37.385 18.7495 37.3848 18.7495C32.9472 18.7498 29.3496 22.3475 29.3496 26.7852V26.7852C29.3496 27.85 28.9934 28.9204 28.089 29.4823L25.2706 31.2336C22.6987 32.8316 19.3524 32.2883 16.3276 32.1514C16.2046 32.1458 16.0809 32.143 15.9566 32.143C11.5188 32.143 7.9209 35.7409 7.9209 40.1787C7.9209 44.6166 11.5188 48.2145 15.9566 48.2145C16.0834 48.2145 16.2095 48.2115 16.3348 48.2058C19.3554 48.0664 22.6963 47.5237 25.2647 49.1196L28.0894 50.8748C28.9932 51.4363 29.3489 52.507 29.3489 53.5709V53.5709C29.3489 58.0088 32.9468 61.6066 37.3846 61.6066C41.8225 61.6066 45.4204 58.0088 45.4204 53.5709C45.4204 49.1331 41.8225 45.5352 37.3846 45.5352C37.2579 45.5352 37.1318 45.5381 37.0064 45.5439C33.9859 45.6833 30.645 46.226 28.0766 44.6301L25.2518 42.8749C24.3481 42.3134 23.9923 41.2427 23.9923 40.1787V40.1787V40.1787C23.9923 39.1148 24.3481 38.0441 25.2518 37.4826L28.0762 35.7276C30.6447 34.1317 33.9864 34.6738 37.0071 34.8129C37.1322 34.8187 37.2581 34.8216 37.3846 34.8216C41.8225 34.8216 45.4204 31.2238 45.4204 26.7859C45.4204 22.3482 41.8228 18.7504 37.3851 18.7502C37.3849 18.7502 37.3849 18.75 37.385 18.7498V18.7498ZM56.1353 18.7495C54.0041 18.7495 51.9602 19.5961 50.4532 21.1031C48.9462 22.6101 48.0996 24.654 48.0996 26.7852C48.0996 28.9164 48.9462 30.9603 50.4532 32.4673C51.9602 33.9743 54.0041 34.8209 56.1353 34.8209C58.2665 34.8209 60.3104 33.9743 61.8174 32.4673C63.3244 30.9603 64.171 28.9164 64.171 26.7852C64.171 24.654 63.3244 22.6101 61.8174 21.1031C60.3104 19.5961 58.2665 18.7495 56.1353 18.7495ZM56.1353 45.5352C54.0041 45.5352 51.9602 46.3818 50.4532 47.8888C48.9462 49.3958 48.0996 51.4397 48.0996 53.5709C48.0996 55.7021 48.9462 57.7461 50.4532 59.253C51.9602 60.76 54.0041 61.6066 56.1353 61.6066C58.2665 61.6066 60.3104 60.76 61.8174 59.253C63.3244 57.7461 64.171 55.7021 64.171 53.5709C64.171 51.4397 63.3244 49.3958 61.8174 47.8888C60.3104 46.3818 58.2665 45.5352 56.1353 45.5352Z" fill="black"/>
</g>
<path d="M38.884 16.0716C38.8841 16.0715 38.884 16.0713 38.8839 16.0713C34.4462 16.0715 30.8486 19.6693 30.8486 24.107V24.107C30.8486 25.1718 30.4925 26.2422 29.588 26.8041L26.7696 28.5554C24.1978 30.1534 20.8514 29.6101 17.8266 29.4732C17.7037 29.4676 17.58 29.4648 17.4556 29.4648C13.0178 29.4648 9.41992 33.0627 9.41992 37.5005C9.41992 41.9384 13.0178 45.5362 17.4556 45.5362C17.5824 45.5362 17.7085 45.5333 17.8339 45.5275C20.8544 45.3881 24.1953 44.8455 26.7637 46.4414L29.5885 48.1965C30.4922 48.7581 30.848 49.8287 30.848 50.8927V50.8927C30.848 55.3306 34.4458 58.9284 38.8837 58.9284C43.3215 58.9284 46.9194 55.3306 46.9194 50.8927C46.9194 46.4549 43.3215 42.857 38.8837 42.857C38.7569 42.857 38.6308 42.8599 38.5055 42.8657C35.4849 43.0051 32.144 43.5477 29.5756 41.9519L26.7508 40.1967C25.8471 39.6352 25.4914 38.5645 25.4914 37.5005V37.5005V37.5005C25.4914 36.4366 25.8471 35.3659 26.7508 34.8044L29.5753 33.0494C32.1438 31.4535 35.4854 31.9956 38.5061 32.1347C38.6313 32.1405 38.7571 32.1434 38.8837 32.1434C43.3215 32.1434 46.9194 28.5455 46.9194 24.1077C46.9194 19.67 43.3218 16.0722 38.8841 16.072C38.884 16.072 38.8839 16.0717 38.884 16.0716V16.0716ZM57.6343 16.0713C55.5031 16.0713 53.4592 16.9179 51.9522 18.4249C50.4452 19.9319 49.5986 21.9758 49.5986 24.107C49.5986 26.2382 50.4452 28.2821 51.9522 29.7891C53.4592 31.2961 55.5031 32.1427 57.6343 32.1427C59.7655 32.1427 61.8095 31.2961 63.3164 29.7891C64.8234 28.2821 65.6701 26.2382 65.6701 24.107C65.6701 21.9758 64.8234 19.9319 63.3164 18.4249C61.8095 16.9179 59.7655 16.0713 57.6343 16.0713ZM57.6343 42.857C55.5031 42.857 53.4592 43.7036 51.9522 45.2106C50.4452 46.7176 49.5986 48.7615 49.5986 50.8927C49.5986 53.0239 50.4452 55.0678 51.9522 56.5748C53.4592 58.0818 55.5031 58.9284 57.6343 58.9284C59.7655 58.9284 61.8095 58.0818 63.3164 56.5748C64.8234 55.0678 65.6701 53.0239 65.6701 50.8927C65.6701 48.7615 64.8234 46.7176 63.3164 45.2106C61.8095 43.7036 59.7655 42.857 57.6343 42.857Z" fill="white"/>
</svg>
