<svg width="51" height="50" viewBox="0 0 51 50" fill="none" xmlns="http://www.w3.org/2000/svg">
<path d="M50.499 2.50007V47.5001C50.499 48.8808 49.3798 50.0001 47.9991 50.0001H2.9997C1.61901 50.0001 0.499737 48.8808 0.499737 47.5001V2.50007C0.499737 1.11936 1.61901 7.62939e-05 2.9997 7.62939e-05H47.9991C49.3798 7.62939e-05 50.499 1.11936 50.499 2.50007Z" fill="#F58411"/>
<g opacity="0.2">
<path d="M25.4991 12.5001C22.5406 12.5001 20.142 14.8986 20.142 17.8572C20.142 18.2702 20.2211 18.6429 20.3095 19.0291L14.5617 22.6005C13.6456 21.8666 12.4797 21.4291 11.2135 21.4291C8.25498 21.4291 5.85645 23.8276 5.85645 26.7862C5.85645 29.7448 8.25498 32.1434 11.2135 32.1434C12.4796 32.1434 13.6447 31.7059 14.5617 30.9715L20.3095 34.5429C20.2202 34.9286 20.1416 35.3018 20.1416 35.7143C20.1416 38.6729 22.5401 41.0715 25.4987 41.0715C28.4572 41.0715 30.8557 38.6729 30.8557 35.7143C30.8557 32.7558 28.4572 30.3572 25.4987 30.3572C24.2325 30.3572 23.0674 30.7947 22.1505 31.5291L16.4027 27.9576C16.492 27.5719 16.5706 27.1987 16.5706 26.7862C16.5706 26.3737 16.492 26.0005 16.4027 25.6148L22.1505 22.0434C23.0666 22.7773 24.2326 23.2148 25.4987 23.2148C28.4572 23.2148 30.8557 20.8162 30.8557 17.8576C30.8557 14.8991 28.4572 12.5005 25.4987 12.5005L25.4991 12.5001ZM37.9989 12.5001C36.5781 12.5001 35.2156 13.0645 34.2109 14.0691C33.2063 15.0738 32.6419 16.4364 32.6419 17.8572C32.6419 19.278 33.2063 20.6406 34.2109 21.6453C35.2156 22.6499 36.5781 23.2143 37.9989 23.2143C39.4197 23.2143 40.7823 22.6499 41.7869 21.6453C42.7916 20.6406 43.356 19.278 43.356 17.8572C43.356 16.4364 42.7916 15.0738 41.7869 14.0691C40.7823 13.0645 39.4197 12.5001 37.9989 12.5001ZM37.9989 30.3572C36.5781 30.3572 35.2156 30.9216 34.2109 31.9263C33.2063 32.9309 32.6419 34.2935 32.6419 35.7143C32.6419 37.1351 33.2063 38.4978 34.2109 39.5024C35.2156 40.5071 36.5781 41.0715 37.9989 41.0715C39.4197 41.0715 40.7823 40.5071 41.7869 39.5024C42.7916 38.4978 43.356 37.1351 43.356 35.7143C43.356 34.2935 42.7916 32.9309 41.7869 31.9263C40.7823 30.9216 39.4197 30.3572 37.9989 30.3572Z" fill="black"/>
</g>
<path d="M25.4991 10.7144C22.5406 10.7144 20.142 13.113 20.142 16.0716C20.142 16.4845 20.2211 16.8573 20.3095 17.2434L14.5617 20.8149C13.6456 20.0809 12.4797 19.6434 11.2135 19.6434C8.25498 19.6434 5.85645 22.042 5.85645 25.0006C5.85645 27.9591 8.25498 30.3577 11.2135 30.3577C12.4796 30.3577 13.6447 29.9202 14.5617 29.1858L20.3095 32.7573C20.2202 33.143 20.1416 33.5162 20.1416 33.9287C20.1416 36.8873 22.5401 39.2858 25.4987 39.2858C28.4572 39.2858 30.8557 36.8873 30.8557 33.9287C30.8557 30.9701 28.4572 28.5716 25.4987 28.5716C24.2325 28.5716 23.0674 29.009 22.1505 29.7434L16.4027 26.172C16.492 25.7863 16.5706 25.4131 16.5706 25.0006C16.5706 24.5881 16.492 24.2149 16.4027 23.8291L22.1505 20.2577C23.0666 20.9916 24.2326 21.4291 25.4987 21.4291C28.4572 21.4291 30.8557 19.0306 30.8557 16.072C30.8557 13.1134 28.4572 10.7149 25.4987 10.7149L25.4991 10.7144ZM37.9989 10.7144C36.5781 10.7144 35.2156 11.2788 34.2109 12.2835C33.2063 13.2881 32.6419 14.6508 32.6419 16.0716C32.6419 17.4924 33.2063 18.855 34.2109 19.8596C35.2156 20.8643 36.5781 21.4287 37.9989 21.4287C39.4197 21.4287 40.7823 20.8643 41.7869 19.8596C42.7916 18.855 43.356 17.4924 43.356 16.0716C43.356 14.6508 42.7916 13.2881 41.7869 12.2835C40.7823 11.2788 39.4197 10.7144 37.9989 10.7144ZM37.9989 28.5716C36.5781 28.5716 35.2156 29.136 34.2109 30.1406C33.2063 31.1453 32.6419 32.5079 32.6419 33.9287C32.6419 35.3495 33.2063 36.7121 34.2109 37.7168C35.2156 38.7214 36.5781 39.2858 37.9989 39.2858C39.4197 39.2858 40.7823 38.7214 41.7869 37.7168C42.7916 36.7121 43.356 35.3495 43.356 33.9287C43.356 32.5079 42.7916 31.1453 41.7869 30.1406C40.7823 29.136 39.4197 28.5716 37.9989 28.5716Z" fill="white"/>
</svg>
