<svg width="76" height="75" viewBox="0 0 76 75" fill="none" xmlns="http://www.w3.org/2000/svg">
<path d="M0.365234 8.33333C0.365234 3.75 4.11523 0 8.69857 0H67.0319C71.6152 0 75.3652 3.75 75.3652 8.33333V66.6667C75.3652 71.25 71.6152 75 67.0319 75H8.69857C4.11523 75 0.365234 71.25 0.365234 66.6667V8.33333Z" fill="#1E88E5"/>
<path d="M7.83301 12.7339C7.83301 10.2214 9.92942 8.12769 12.4451 8.12769H28.3779C30.8936 8.12769 32.99 10.2214 32.99 12.7339V57.9589C32.99 60.4714 30.8936 62.5652 28.3779 62.5652H12.4451C9.92942 62.5652 7.83301 60.4714 7.83301 57.9589V12.7339ZM41.3757 34.9277C41.3757 37.4402 43.4721 39.5339 45.9878 39.5339H61.9206C64.4363 39.5339 66.5327 37.4402 66.5327 34.9277V12.7339C66.5327 10.2214 64.4363 8.12769 61.9206 8.12769H45.9878C43.4721 8.12769 41.3757 10.2214 41.3757 12.7339V34.9277Z" fill="white"/>
</svg>
