<svg width="51" height="50" viewBox="0 0 51 50" fill="none" xmlns="http://www.w3.org/2000/svg">
<path d="M0.5 5.55556C0.5 2.5 3 0 6.05556 0H44.9444C48 0 50.5 2.5 50.5 5.55556V44.4444C50.5 47.5 48 50 44.9444 50H6.05556C3 50 0.5 47.5 0.5 44.4444V5.55556Z" fill="#1E88E5"/>
<path d="M5.47852 8.48923C5.47852 6.81423 6.87613 5.4184 8.55326 5.4184H19.1751C20.8522 5.4184 22.2499 6.81423 22.2499 8.48923V38.6392C22.2499 40.3142 20.8522 41.7101 19.1751 41.7101H8.55326C6.87613 41.7101 5.47852 40.3142 5.47852 38.6392V8.48923ZM27.8403 23.2851C27.8403 24.9601 29.2379 26.3559 30.915 26.3559H41.5369C43.214 26.3559 44.6116 24.9601 44.6116 23.2851V8.48923C44.6116 6.81423 43.214 5.4184 41.5369 5.4184H30.915C29.2379 5.4184 27.8403 6.81423 27.8403 8.48923V23.2851Z" fill="white"/>
</svg>
