<svg width="164" height="78" viewBox="0 0 164 78" fill="none" xmlns="http://www.w3.org/2000/svg">
<path d="M25.2119 23.9143L16.8525 0.886963H13.3174L5.05566 23.4846C4.62598 24.6305 4.24837 25.4963 3.92285 26.0823C3.59733 26.6682 3.20671 27.0849 2.75098 27.3323C2.29525 27.5667 1.67676 27.7294 0.895508 27.8206V29.0901H9.4502V27.8206C8.46061 27.6903 7.74447 27.5015 7.30176 27.2542C6.85905 26.9937 6.6377 26.5836 6.6377 26.0237C6.65072 25.4508 6.83952 24.6305 7.2041 23.5627L13.6689 4.51978H13.1221L19.8213 23.8557C20.1598 24.8323 20.3226 25.5875 20.3096 26.1213C20.2965 26.6422 20.0687 27.0263 19.626 27.2737C19.1833 27.5211 18.4867 27.7034 17.5361 27.8206V29.0901H29.1768V27.8206C28.4215 27.7294 27.8226 27.5732 27.3799 27.3518C26.9372 27.1174 26.5531 26.7398 26.2275 26.219C25.915 25.6851 25.5765 24.9169 25.2119 23.9143ZM7.73145 19.3635H20.5244L19.9189 17.7229H8.31738L7.73145 19.3635ZM89.1572 48.887H68.5322V50.1565C69.4307 50.2607 70.1012 50.3974 70.5439 50.5667C70.9867 50.7229 71.2731 50.9573 71.4033 51.2698C71.5335 51.5823 71.5986 52.0315 71.5986 52.6174V73.3596C71.5986 73.9456 71.5335 74.3948 71.4033 74.7073C71.2731 75.0198 70.9867 75.2607 70.5439 75.4299C70.1012 75.5862 69.4307 75.7164 68.5322 75.8206V77.0901H80.0557V75.8206C79.0791 75.7164 78.3499 75.5732 77.8682 75.3909C77.3994 75.2086 77.0869 74.9417 76.9307 74.5901C76.7874 74.2255 76.7158 73.7242 76.7158 73.0862V63.5745L81.2666 63.6331C81.8916 63.6461 82.3799 63.7633 82.7314 63.9846C83.096 64.193 83.3825 64.5836 83.5908 65.1565C83.8122 65.7164 84.014 66.5302 84.1963 67.5979H85.3096V58.1057H84.1963C83.988 59.1864 83.7731 60.0133 83.5518 60.5862C83.3304 61.1461 83.0439 61.5302 82.6924 61.7385C82.3538 61.9469 81.8786 62.0575 81.2666 62.0706L76.7158 62.1096V50.3518L80.876 50.4885C82.4906 50.5667 83.7731 50.762 84.7236 51.0745C85.6742 51.387 86.4098 51.9338 86.9307 52.7151C87.4645 53.4833 87.8942 54.5966 88.2197 56.0549H89.3916L89.1572 48.887Z" fill="#9B9785"/>
<path d="M36.3643 29.5002C37.3538 29.5002 38.2718 29.3635 39.1182 29.0901C39.9645 28.8297 40.7002 28.4716 41.3252 28.0159C41.9502 27.5601 42.432 27.0588 42.7705 26.512C42.9137 27.1239 43.1742 27.6448 43.5518 28.0745C43.9424 28.5042 44.4176 28.8297 44.9775 29.051C45.5505 29.2724 46.182 29.3831 46.8721 29.3831C47.6143 29.3831 48.2783 29.2854 48.8643 29.0901C49.4502 28.9078 49.9189 28.6995 50.2705 28.4651V27.2737C50.0231 27.3778 49.6976 27.4299 49.2939 27.4299C48.734 27.4299 48.2523 27.2542 47.8486 26.9026C47.445 26.538 47.2432 25.9325 47.2432 25.0862V15.5354C47.2432 13.3739 46.5465 11.7919 45.1533 10.7893C43.7731 9.77368 41.8916 9.26587 39.5088 9.26587C37.9463 9.26587 36.5465 9.46769 35.3096 9.87134C34.0726 10.275 33.096 10.8219 32.3799 11.512C31.6637 12.2021 31.3057 12.9898 31.3057 13.8752C31.3057 14.5523 31.54 15.1057 32.0088 15.5354C32.4775 15.9651 33.0505 16.1799 33.7275 16.1799C34.4046 16.1799 34.9775 15.9651 35.4463 15.5354C35.915 15.0927 36.1494 14.5523 36.1494 13.9143C36.1494 13.2763 35.9281 12.7359 35.4854 12.2932C35.0557 11.8375 34.5348 11.6096 33.9229 11.6096C33.363 11.6096 32.8747 11.8635 32.458 12.3713C32.0413 12.8661 31.8265 13.4651 31.8135 14.1682H32.6924C32.8486 13.5172 33.1676 12.9638 33.6494 12.5081C34.1442 12.0393 34.7627 11.6812 35.5049 11.4338C36.2471 11.1864 37.0479 11.0627 37.9072 11.0627C39.3395 11.0627 40.4854 11.4208 41.3447 12.137C42.2171 12.8531 42.6533 14.0966 42.6533 15.8674V25.3206C42.2627 25.9195 41.7354 26.3883 41.0713 26.7268C40.4072 27.0523 39.6585 27.2151 38.8252 27.2151C37.8226 27.2151 36.9893 26.9221 36.3252 26.3362C35.6611 25.7502 35.3291 24.9169 35.3291 23.8362C35.3291 23.12 35.4919 22.495 35.8174 21.9612C36.1429 21.4273 36.6702 20.9651 37.3994 20.5745C38.1286 20.1838 39.1117 19.8518 40.3486 19.5784L44.2939 18.719V17.2346L38.3564 18.5042C36.5205 18.8948 35.0361 19.37 33.9033 19.9299C32.7705 20.4898 31.9437 21.1604 31.4229 21.9417C30.902 22.7229 30.6416 23.6213 30.6416 24.637C30.6416 26.0693 31.182 27.2411 32.2627 28.1526C33.3434 29.051 34.7106 29.5002 36.3643 29.5002ZM52.5947 15.0276C52.5947 16.5901 53.1221 17.8336 54.1768 18.7581C55.2314 19.6695 56.6507 20.3857 58.4346 20.9065L60.0557 21.3752C61.3447 21.7528 62.2692 22.1956 62.8291 22.7034C63.389 23.2112 63.6689 23.8883 63.6689 24.7346C63.6689 25.607 63.3109 26.3232 62.5947 26.8831C61.8786 27.443 60.902 27.7229 59.665 27.7229C58.7145 27.7229 57.8226 27.5276 56.9893 27.137C56.1689 26.7463 55.4593 26.1734 54.8604 25.4182C54.2744 24.65 53.8577 23.7125 53.6104 22.6057H52.4385L52.6143 27.762C53.096 28.0745 53.7015 28.3609 54.4307 28.6213C55.1729 28.8687 55.9932 29.064 56.8916 29.2073C57.79 29.3635 58.7471 29.4417 59.7627 29.4417C61.2471 29.4417 62.6012 29.2073 63.8252 28.7385C65.0492 28.2568 66.0192 27.5732 66.7354 26.6877C67.4645 25.8023 67.8291 24.7476 67.8291 23.5237C67.8291 21.9221 67.3278 20.6396 66.3252 19.676C65.3356 18.7125 63.9229 17.9703 62.0869 17.4495L60.4854 16.9807C59.3005 16.6422 58.3825 16.2385 57.7314 15.7698C57.0804 15.301 56.7549 14.637 56.7549 13.7776C56.7549 12.9182 57.0999 12.2346 57.79 11.7268C58.4932 11.219 59.4372 10.9651 60.6221 10.9651C61.9111 10.9651 63.0179 11.3622 63.9424 12.1565C64.8669 12.9377 65.4854 14.064 65.7979 15.5354H66.9697L66.8525 10.6135C66.3057 10.262 65.4854 9.94946 64.3916 9.67603C63.3109 9.40259 62.0413 9.26587 60.583 9.26587C58.9684 9.26587 57.5622 9.49373 56.3643 9.94946C55.1794 10.4052 54.2549 11.0693 53.5908 11.9417C52.9268 12.801 52.5947 13.8297 52.5947 15.0276ZM77.9268 9.42212L70.6416 10.301V11.4338L71.9697 11.7854C72.5166 11.9417 72.8617 12.1239 73.0049 12.3323C73.1611 12.5406 73.2393 12.9182 73.2393 13.4651V25.9456C73.2393 26.5836 73.0895 27.0198 72.79 27.2542C72.4906 27.4885 71.7744 27.6773 70.6416 27.8206V29.0901H80.5244V27.8206C79.3916 27.6773 78.6755 27.4885 78.376 27.2542C78.0765 27.0198 77.9268 26.5836 77.9268 25.9456V9.42212ZM75.1729 5.92603C75.9411 5.92603 76.5921 5.67863 77.126 5.18384C77.6598 4.68905 77.9268 4.06405 77.9268 3.30884C77.9268 2.55363 77.6598 1.92863 77.126 1.43384C76.5921 0.926025 75.9411 0.672119 75.1729 0.672119C74.4176 0.672119 73.7666 0.926025 73.2197 1.43384C72.6859 1.92863 72.4189 2.55363 72.4189 3.30884C72.4189 4.06405 72.6859 4.68905 73.2197 5.18384C73.7536 5.67863 74.4046 5.92603 75.1729 5.92603ZM84.7822 14.0901L91.0127 29.2463C90.5049 30.2099 89.9385 31.232 89.3135 32.3127C88.6885 33.3935 88.0635 34.4286 87.4385 35.4182C86.8135 36.4208 86.2471 37.2802 85.7393 37.9963V38.0745H89.7236L92.8877 29.2659L94.665 24.9104L98.9814 14.3831C99.359 13.4586 99.6911 12.7685 99.9775 12.3127C100.264 11.857 100.583 11.538 100.935 11.3557C101.299 11.1734 101.787 11.0302 102.399 10.926V9.65649H95.1729V10.926C95.9932 11.0042 96.5921 11.1409 96.9697 11.3362C97.3604 11.5185 97.5622 11.8245 97.5752 12.2542C97.5882 12.6838 97.445 13.3023 97.1455 14.1096L93.0439 24.8909H93.7471L89.7627 14.0706C89.333 12.8857 89.2419 12.0979 89.4893 11.7073C89.7497 11.3167 90.5049 11.0562 91.7549 10.926V9.65649H81.5596V10.926C82.1455 11.0432 82.6143 11.1995 82.9658 11.3948C83.3174 11.5771 83.6299 11.8765 83.9033 12.2932C84.1768 12.6969 84.4697 13.2958 84.7822 14.0901ZM109.88 29.5002C110.869 29.5002 111.787 29.3635 112.634 29.0901C113.48 28.8297 114.216 28.4716 114.841 28.0159C115.466 27.5601 115.948 27.0588 116.286 26.512C116.429 27.1239 116.69 27.6448 117.067 28.0745C117.458 28.5042 117.933 28.8297 118.493 29.051C119.066 29.2724 119.698 29.3831 120.388 29.3831C121.13 29.3831 121.794 29.2854 122.38 29.0901C122.966 28.9078 123.435 28.6995 123.786 28.4651V27.2737C123.539 27.3778 123.213 27.4299 122.81 27.4299C122.25 27.4299 121.768 27.2542 121.364 26.9026C120.961 26.538 120.759 25.9325 120.759 25.0862V15.5354C120.759 13.3739 120.062 11.7919 118.669 10.7893C117.289 9.77368 115.407 9.26587 113.024 9.26587C111.462 9.26587 110.062 9.46769 108.825 9.87134C107.588 10.275 106.612 10.8219 105.896 11.512C105.179 12.2021 104.821 12.9898 104.821 13.8752C104.821 14.5523 105.056 15.1057 105.524 15.5354C105.993 15.9651 106.566 16.1799 107.243 16.1799C107.92 16.1799 108.493 15.9651 108.962 15.5354C109.431 15.0927 109.665 14.5523 109.665 13.9143C109.665 13.2763 109.444 12.7359 109.001 12.2932C108.571 11.8375 108.05 11.6096 107.438 11.6096C106.879 11.6096 106.39 11.8635 105.974 12.3713C105.557 12.8661 105.342 13.4651 105.329 14.1682H106.208C106.364 13.5172 106.683 12.9638 107.165 12.5081C107.66 12.0393 108.278 11.6812 109.021 11.4338C109.763 11.1864 110.563 11.0627 111.423 11.0627C112.855 11.0627 114.001 11.4208 114.86 12.137C115.733 12.8531 116.169 14.0966 116.169 15.8674V25.3206C115.778 25.9195 115.251 26.3883 114.587 26.7268C113.923 27.0523 113.174 27.2151 112.341 27.2151C111.338 27.2151 110.505 26.9221 109.841 26.3362C109.177 25.7502 108.845 24.9169 108.845 23.8362C108.845 23.12 109.007 22.495 109.333 21.9612C109.659 21.4273 110.186 20.9651 110.915 20.5745C111.644 20.1838 112.627 19.8518 113.864 19.5784L117.81 18.719V17.2346L111.872 18.5042C110.036 18.8948 108.552 19.37 107.419 19.9299C106.286 20.4898 105.459 21.1604 104.938 21.9417C104.418 22.7229 104.157 23.6213 104.157 24.637C104.157 26.0693 104.698 27.2411 105.778 28.1526C106.859 29.051 108.226 29.5002 109.88 29.5002ZM97.7314 77.5002C98.721 77.5002 99.639 77.3635 100.485 77.0901C101.332 76.8297 102.067 76.4716 102.692 76.0159C103.317 75.5601 103.799 75.0588 104.138 74.512C104.281 75.1239 104.541 75.6448 104.919 76.0745C105.31 76.5042 105.785 76.8297 106.345 77.051C106.918 77.2724 107.549 77.3831 108.239 77.3831C108.981 77.3831 109.646 77.2854 110.231 77.0901C110.817 76.9078 111.286 76.6995 111.638 76.4651V75.2737C111.39 75.3778 111.065 75.4299 110.661 75.4299C110.101 75.4299 109.619 75.2542 109.216 74.9026C108.812 74.538 108.61 73.9325 108.61 73.0862V63.5354C108.61 61.3739 107.914 59.7919 106.521 58.7893C105.14 57.7737 103.259 57.2659 100.876 57.2659C99.3135 57.2659 97.9137 57.4677 96.6768 57.8713C95.4398 58.275 94.4632 58.8219 93.7471 59.512C93.0309 60.2021 92.6729 60.9898 92.6729 61.8752C92.6729 62.5523 92.9072 63.1057 93.376 63.5354C93.8447 63.9651 94.4176 64.1799 95.0947 64.1799C95.7718 64.1799 96.3447 63.9651 96.8135 63.5354C97.2822 63.0927 97.5166 62.5523 97.5166 61.9143C97.5166 61.2763 97.2952 60.7359 96.8525 60.2932C96.4229 59.8375 95.902 59.6096 95.29 59.6096C94.7301 59.6096 94.2419 59.8635 93.8252 60.3713C93.4085 60.8661 93.1937 61.4651 93.1807 62.1682H94.0596C94.2158 61.5172 94.5348 60.9638 95.0166 60.5081C95.5114 60.0393 96.1299 59.6812 96.8721 59.4338C97.6143 59.1864 98.415 59.0627 99.2744 59.0627C100.707 59.0627 101.853 59.4208 102.712 60.137C103.584 60.8531 104.021 62.0966 104.021 63.8674V73.3206C103.63 73.9195 103.103 74.3883 102.438 74.7268C101.774 75.0523 101.026 75.2151 100.192 75.2151C99.1898 75.2151 98.3564 74.9221 97.6924 74.3362C97.0283 73.7502 96.6963 72.9169 96.6963 71.8362C96.6963 71.12 96.859 70.495 97.1846 69.9612C97.5101 69.4273 98.0374 68.9651 98.7666 68.5745C99.4958 68.1838 100.479 67.8518 101.716 67.5784L105.661 66.719V65.2346L99.7236 66.5042C97.8877 66.8948 96.4033 67.37 95.2705 67.9299C94.1377 68.4898 93.3109 69.1604 92.79 69.9417C92.2692 70.7229 92.0088 71.6213 92.0088 72.637C92.0088 74.0693 92.5492 75.2411 93.6299 76.1526C94.7106 77.051 96.0778 77.5002 97.7314 77.5002ZM113.591 57.6565L113.435 63.5745H114.606C114.906 62.4286 115.244 61.5562 115.622 60.9573C116.013 60.3453 116.534 59.9221 117.185 59.6877C117.836 59.4403 118.721 59.2906 119.841 59.2385L125.017 59.0627L124.411 58.3206L113.259 75.9377V77.0901H129.333L129.47 70.762H128.298C128.037 72.051 127.712 73.0276 127.321 73.6917C126.944 74.3557 126.436 74.818 125.798 75.0784C125.173 75.3258 124.359 75.469 123.356 75.5081L117.517 75.7034L118.103 76.387L129.333 58.8088V57.6565H113.591ZM138.044 77.5002C139.034 77.5002 139.951 77.3635 140.798 77.0901C141.644 76.8297 142.38 76.4716 143.005 76.0159C143.63 75.5601 144.112 75.0588 144.45 74.512C144.593 75.1239 144.854 75.6448 145.231 76.0745C145.622 76.5042 146.097 76.8297 146.657 77.051C147.23 77.2724 147.862 77.3831 148.552 77.3831C149.294 77.3831 149.958 77.2854 150.544 77.0901C151.13 76.9078 151.599 76.6995 151.95 76.4651V75.2737C151.703 75.3778 151.377 75.4299 150.974 75.4299C150.414 75.4299 149.932 75.2542 149.528 74.9026C149.125 74.538 148.923 73.9325 148.923 73.0862V63.5354C148.923 61.3739 148.226 59.7919 146.833 58.7893C145.453 57.7737 143.571 57.2659 141.188 57.2659C139.626 57.2659 138.226 57.4677 136.989 57.8713C135.752 58.275 134.776 58.8219 134.06 59.512C133.343 60.2021 132.985 60.9898 132.985 61.8752C132.985 62.5523 133.22 63.1057 133.688 63.5354C134.157 63.9651 134.73 64.1799 135.407 64.1799C136.084 64.1799 136.657 63.9651 137.126 63.5354C137.595 63.0927 137.829 62.5523 137.829 61.9143C137.829 61.2763 137.608 60.7359 137.165 60.2932C136.735 59.8375 136.215 59.6096 135.603 59.6096C135.043 59.6096 134.554 59.8635 134.138 60.3713C133.721 60.8661 133.506 61.4651 133.493 62.1682H134.372C134.528 61.5172 134.847 60.9638 135.329 60.5081C135.824 60.0393 136.442 59.6812 137.185 59.4338C137.927 59.1864 138.728 59.0627 139.587 59.0627C141.019 59.0627 142.165 59.4208 143.024 60.137C143.897 60.8531 144.333 62.0966 144.333 63.8674V73.3206C143.942 73.9195 143.415 74.3883 142.751 74.7268C142.087 75.0523 141.338 75.2151 140.505 75.2151C139.502 75.2151 138.669 74.9221 138.005 74.3362C137.341 73.7502 137.009 72.9169 137.009 71.8362C137.009 71.12 137.172 70.495 137.497 69.9612C137.823 69.4273 138.35 68.9651 139.079 68.5745C139.808 68.1838 140.791 67.8518 142.028 67.5784L145.974 66.719V65.2346L140.036 66.5042C138.2 66.8948 136.716 67.37 135.583 67.9299C134.45 68.4898 133.623 69.1604 133.103 69.9417C132.582 70.7229 132.321 71.6213 132.321 72.637C132.321 74.0693 132.862 75.2411 133.942 76.1526C135.023 77.051 136.39 77.5002 138.044 77.5002ZM160.778 48.0081L153.493 48.887V50.0198L154.821 50.3713C155.368 50.5276 155.713 50.7099 155.856 50.9182C156.013 51.1135 156.091 51.4911 156.091 52.051V73.9456C156.091 74.5836 155.941 75.0198 155.642 75.2542C155.342 75.4885 154.626 75.6773 153.493 75.8206V77.0901H163.376V75.8206C162.243 75.6773 161.527 75.4885 161.228 75.2542C160.928 75.0198 160.778 74.5836 160.778 73.9456V48.0081Z" fill="black"/>
</svg>
