<svg width="177" height="86" viewBox="0 0 177 86" fill="none" xmlns="http://www.w3.org/2000/svg">
<path d="M0.898398 30.886V29.086H1.5784C2.11173 29.086 2.5384 29.006 2.8584 28.846C3.20507 28.686 3.51173 28.3927 3.7784 27.966C4.07173 27.5127 4.36507 26.8593 4.6584 26.006L13.4984 2.32598H17.2584L26.0984 26.766C26.3384 27.3793 26.5784 27.8593 26.8184 28.206C27.0851 28.526 27.3917 28.7527 27.7384 28.886C28.1117 29.0193 28.5384 29.086 29.0184 29.086H29.5784V30.886H17.9784V29.086H19.0584C19.7517 29.086 20.2984 28.9393 20.6984 28.646C21.0984 28.3527 21.2984 27.886 21.2984 27.246C21.2984 27.086 21.2851 26.926 21.2584 26.766C21.2317 26.606 21.1917 26.4327 21.1384 26.246C21.0851 26.0593 21.0317 25.886 20.9784 25.726L19.4184 21.366H9.0984L7.6984 25.366C7.6184 25.5793 7.55173 25.806 7.4984 26.046C7.44507 26.2593 7.39173 26.4727 7.3384 26.686C7.31173 26.8727 7.2984 27.0593 7.2984 27.246C7.2984 27.8593 7.51173 28.326 7.9384 28.646C8.36507 28.9393 8.95173 29.086 9.6984 29.086H10.8584V30.886H0.898398ZM9.8984 19.246H18.6584L16.2984 12.366C16.0584 11.6193 15.8051 10.886 15.5384 10.166C15.2984 9.44599 15.0851 8.75265 14.8984 8.08598C14.7117 7.39265 14.5384 6.72599 14.3784 6.08599C14.2717 6.56598 14.1517 7.04598 14.0184 7.52598C13.8851 7.97932 13.7384 8.44599 13.5784 8.92599C13.4451 9.40599 13.2851 9.91265 13.0984 10.446C12.9384 10.9527 12.7384 11.486 12.4984 12.046L9.8984 19.246ZM74.9928 84.886V83.086H75.8328C76.3661 83.086 76.8461 83.0327 77.2728 82.926C77.7261 82.7927 78.0861 82.5393 78.3528 82.166C78.6461 81.7927 78.7928 81.2327 78.7928 80.486V60.766C78.7928 59.9927 78.6461 59.4193 78.3528 59.046C78.0861 58.6727 77.7261 58.4327 77.2728 58.326C76.8461 58.1927 76.3661 58.126 75.8328 58.126H74.9928V56.326H95.7128L95.9128 63.406H93.6328L93.4328 61.646C93.3794 61.006 93.2194 60.446 92.9528 59.966C92.6861 59.486 92.3128 59.1127 91.8328 58.846C91.3528 58.5793 90.7261 58.446 89.9528 58.446H83.4328V69.846H93.0328V71.886H83.4328V80.286C83.4328 81.086 83.5661 81.686 83.8328 82.086C84.0994 82.486 84.4594 82.7527 84.9128 82.886C85.3661 83.0193 85.8594 83.086 86.3928 83.086H88.0328V84.886H74.9928Z" fill="#9B9785"/>
<path d="M37.7293 31.286C36.556 31.286 35.4893 31.0593 34.5293 30.606C33.596 30.126 32.8627 29.4193 32.3293 28.486C31.796 27.526 31.5293 26.3127 31.5293 24.846C31.5293 22.7127 32.276 21.1393 33.7693 20.126C35.2627 19.086 37.5427 18.5127 40.6093 18.406L43.8893 18.286V15.966C43.8893 15.006 43.8093 14.166 43.6493 13.446C43.516 12.726 43.2093 12.166 42.7293 11.766C42.2493 11.3393 41.516 11.126 40.5293 11.126C39.596 11.126 38.876 11.3127 38.3693 11.686C37.8893 12.0593 37.556 12.5793 37.3693 13.246C37.2093 13.886 37.1293 14.6327 37.1293 15.486C35.8493 15.486 34.876 15.2993 34.2093 14.926C33.5427 14.526 33.2093 13.8593 33.2093 12.926C33.2093 11.966 33.5427 11.206 34.2093 10.646C34.9027 10.086 35.8093 9.67265 36.9293 9.40599C38.076 9.13932 39.3293 9.00598 40.6893 9.00598C43.2227 9.00598 45.116 9.52598 46.3693 10.566C47.6493 11.606 48.2893 13.3793 48.2893 15.886V26.206C48.2893 26.9527 48.3693 27.5393 48.5293 27.966C48.6893 28.366 48.956 28.6593 49.3293 28.846C49.7027 29.006 50.1827 29.086 50.7693 29.086H50.8893V30.886H44.9293L44.2493 27.646H43.8893C43.3293 28.366 42.7827 29.006 42.2493 29.566C41.716 30.0993 41.1027 30.526 40.4093 30.846C39.716 31.1393 38.8227 31.286 37.7293 31.286ZM39.0093 28.686C40.0227 28.686 40.8893 28.4727 41.6093 28.046C42.3293 27.5927 42.8893 26.9527 43.2893 26.126C43.6893 25.2993 43.8893 24.3393 43.8893 23.246V20.086L41.5293 20.206C40.1427 20.2593 39.0493 20.486 38.2493 20.886C37.4493 21.2593 36.876 21.7927 36.5293 22.486C36.2093 23.1793 36.0493 24.0327 36.0493 25.046C36.0493 25.846 36.156 26.526 36.3693 27.086C36.5827 27.6193 36.9027 28.0193 37.3293 28.286C37.7827 28.5527 38.3427 28.686 39.0093 28.686ZM61.139 31.286C59.6457 31.286 58.379 31.1127 57.339 30.766C56.299 30.4193 55.499 29.926 54.939 29.286C54.4057 28.6193 54.139 27.8327 54.139 26.926C54.139 26.1527 54.299 25.566 54.619 25.166C54.9657 24.766 55.3524 24.486 55.779 24.326C56.2324 24.166 56.6324 24.086 56.979 24.086C56.979 25.0727 57.1257 25.966 57.419 26.766C57.7124 27.5393 58.179 28.1527 58.819 28.606C59.459 29.0327 60.2857 29.246 61.299 29.246C62.7124 29.246 63.779 28.926 64.499 28.286C65.219 27.646 65.579 26.8327 65.579 25.846C65.579 25.206 65.4324 24.6727 65.139 24.246C64.8724 23.8193 64.379 23.406 63.659 23.006C62.9657 22.5793 61.9657 22.1127 60.659 21.606C59.2724 21.0193 58.1124 20.4327 57.179 19.846C56.2724 19.2593 55.5924 18.5793 55.139 17.806C54.6857 17.0327 54.459 16.0593 54.459 14.886C54.459 12.9927 55.1657 11.5527 56.579 10.566C58.019 9.55265 59.9124 9.04599 62.259 9.04599C63.6457 9.04599 64.7924 9.21932 65.699 9.56598C66.6324 9.91265 67.3124 10.366 67.739 10.926C68.1924 11.486 68.419 12.086 68.419 12.726C68.419 13.4993 68.1524 14.1127 67.619 14.566C67.0857 15.0193 66.2857 15.246 65.219 15.246C65.219 13.9127 64.9257 12.8727 64.339 12.126C63.779 11.3793 62.9124 11.006 61.739 11.006C60.939 11.006 60.259 11.1393 59.699 11.406C59.1657 11.646 58.7657 11.9927 58.499 12.446C58.2324 12.8727 58.099 13.3927 58.099 14.006C58.099 14.646 58.259 15.1927 58.579 15.646C58.9257 16.0993 59.4724 16.526 60.219 16.926C60.9657 17.2993 61.9657 17.726 63.219 18.206C64.579 18.7393 65.699 19.2993 66.579 19.886C67.459 20.4727 68.1124 21.166 68.539 21.966C68.9924 22.7393 69.219 23.686 69.219 24.806C69.219 26.9127 68.4857 28.526 67.019 29.646C65.579 30.7393 63.619 31.286 61.139 31.286ZM71.7765 30.886V29.086H72.2965C72.8299 29.086 73.3365 29.0327 73.8165 28.926C74.2965 28.7927 74.6832 28.5393 74.9765 28.166C75.2965 27.766 75.4565 27.1927 75.4565 26.446V13.886C75.4565 13.1127 75.2965 12.5393 74.9765 12.166C74.6832 11.7927 74.2965 11.5527 73.8165 11.446C73.3365 11.3127 72.8299 11.246 72.2965 11.246H72.0965V9.44599H79.8565V26.286C79.8565 27.086 80.0032 27.686 80.2965 28.086C80.5899 28.486 80.9765 28.7527 81.4565 28.886C81.9632 29.0193 82.4832 29.086 83.0165 29.086H83.5365V30.886H71.7765ZM77.4965 5.56599C76.7499 5.56599 76.1232 5.36599 75.6165 4.96599C75.1365 4.56599 74.8965 3.89932 74.8965 2.96599C74.8965 2.00599 75.1499 1.33932 75.6565 0.965985C76.1632 0.565986 76.7765 0.365986 77.4965 0.365986C78.1899 0.365986 78.7899 0.565986 79.2965 0.965985C79.8299 1.33932 80.0965 2.00599 80.0965 2.96599C80.0965 3.89932 79.8299 4.56599 79.2965 4.96599C78.7899 5.36599 78.1899 5.56599 77.4965 5.56599ZM85.5006 38.486C86.8606 38.486 88.0339 38.286 89.0206 37.886C90.0073 37.5127 90.8473 36.9793 91.5406 36.286C92.2339 35.6193 92.8073 34.8193 93.2606 33.886C93.7406 32.9527 94.1406 31.926 94.4606 30.806L87.1006 13.326C86.8873 12.766 86.6473 12.3527 86.3806 12.086C86.1406 11.7927 85.8606 11.5927 85.5406 11.486C85.2473 11.3793 84.8473 11.326 84.3406 11.326H84.2206V9.44599H94.3006V11.246H94.1806C93.4073 11.246 92.8073 11.3927 92.3806 11.686C91.9806 11.9527 91.7806 12.406 91.7806 13.046C91.7806 13.2593 91.8073 13.4993 91.8606 13.766C91.9406 14.006 92.0339 14.2727 92.1406 14.566L95.0206 21.726C95.2073 22.1793 95.3806 22.6593 95.5406 23.166C95.7273 23.6727 95.9006 24.166 96.0606 24.646C96.2206 25.126 96.3539 25.5793 96.4606 26.006C96.5939 26.4327 96.6739 26.7927 96.7006 27.086C96.8606 26.366 97.0739 25.6193 97.3406 24.846C97.6339 24.046 97.8873 23.326 98.1006 22.686L100.781 14.886C100.914 14.5927 101.007 14.286 101.061 13.966C101.114 13.6193 101.141 13.3393 101.141 13.126C101.141 12.4593 100.914 11.9793 100.461 11.686C100.007 11.3927 99.3406 11.246 98.4606 11.246H98.3406V9.44599H106.861V11.246H106.741C106.234 11.246 105.807 11.3393 105.461 11.526C105.114 11.686 104.807 11.9927 104.541 12.446C104.274 12.8727 103.994 13.4993 103.701 14.326L97.6206 31.006C96.9273 32.9527 96.2606 34.5393 95.6206 35.766C94.9806 36.9927 94.2606 37.9527 93.4606 38.646C92.6606 39.3393 91.6606 39.8193 90.4606 40.086C89.2606 40.3527 87.7539 40.486 85.9406 40.486H85.5006V38.486ZM115.034 31.286C113.861 31.286 112.794 31.0593 111.834 30.606C110.901 30.126 110.167 29.4193 109.634 28.486C109.101 27.526 108.834 26.3127 108.834 24.846C108.834 22.7127 109.581 21.1393 111.074 20.126C112.567 19.086 114.847 18.5127 117.914 18.406L121.194 18.286V15.966C121.194 15.006 121.114 14.166 120.954 13.446C120.821 12.726 120.514 12.166 120.034 11.766C119.554 11.3393 118.821 11.126 117.834 11.126C116.901 11.126 116.181 11.3127 115.674 11.686C115.194 12.0593 114.861 12.5793 114.674 13.246C114.514 13.886 114.434 14.6327 114.434 15.486C113.154 15.486 112.181 15.2993 111.514 14.926C110.847 14.526 110.514 13.8593 110.514 12.926C110.514 11.966 110.847 11.206 111.514 10.646C112.207 10.086 113.114 9.67265 114.234 9.40599C115.381 9.13932 116.634 9.00598 117.994 9.00598C120.527 9.00598 122.421 9.52598 123.674 10.566C124.954 11.606 125.594 13.3793 125.594 15.886V26.206C125.594 26.9527 125.674 27.5393 125.834 27.966C125.994 28.366 126.261 28.6593 126.634 28.846C127.007 29.006 127.487 29.086 128.074 29.086H128.194V30.886H122.234L121.554 27.646H121.194C120.634 28.366 120.087 29.006 119.554 29.566C119.021 30.0993 118.407 30.526 117.714 30.846C117.021 31.1393 116.127 31.286 115.034 31.286ZM116.314 28.686C117.327 28.686 118.194 28.4727 118.914 28.046C119.634 27.5927 120.194 26.9527 120.594 26.126C120.994 25.2993 121.194 24.3393 121.194 23.246V20.086L118.834 20.206C117.447 20.2593 116.354 20.486 115.554 20.886C114.754 21.2593 114.181 21.7927 113.834 22.486C113.514 23.1793 113.354 24.0327 113.354 25.046C113.354 25.846 113.461 26.526 113.674 27.086C113.887 27.6193 114.207 28.0193 114.634 28.286C115.087 28.5527 115.647 28.686 116.314 28.686ZM105.698 85.286C104.525 85.286 103.458 85.0593 102.498 84.606C101.565 84.126 100.831 83.4193 100.298 82.486C99.7648 81.526 99.4981 80.3127 99.4981 78.846C99.4981 76.7127 100.245 75.1393 101.738 74.126C103.231 73.086 105.511 72.5127 108.578 72.406L111.858 72.286V69.966C111.858 69.006 111.778 68.166 111.618 67.446C111.485 66.726 111.178 66.166 110.698 65.766C110.218 65.3393 109.485 65.126 108.498 65.126C107.565 65.126 106.845 65.3127 106.338 65.686C105.858 66.0593 105.525 66.5793 105.338 67.246C105.178 67.886 105.098 68.6327 105.098 69.486C103.818 69.486 102.845 69.2993 102.178 68.926C101.511 68.526 101.178 67.8593 101.178 66.926C101.178 65.966 101.511 65.206 102.178 64.646C102.871 64.086 103.778 63.6727 104.898 63.406C106.045 63.1393 107.298 63.006 108.658 63.006C111.191 63.006 113.085 63.526 114.338 64.566C115.618 65.606 116.258 67.3793 116.258 69.886V80.206C116.258 80.9527 116.338 81.5393 116.498 81.966C116.658 82.366 116.925 82.6593 117.298 82.846C117.671 83.006 118.151 83.086 118.738 83.086H118.858V84.886H112.898L112.218 81.646H111.858C111.298 82.366 110.751 83.006 110.218 83.566C109.685 84.0993 109.071 84.526 108.378 84.846C107.685 85.1393 106.791 85.286 105.698 85.286ZM106.978 82.686C107.991 82.686 108.858 82.4727 109.578 82.046C110.298 81.5927 110.858 80.9527 111.258 80.126C111.658 79.2993 111.858 78.3393 111.858 77.246V74.086L109.498 74.206C108.111 74.2593 107.018 74.486 106.218 74.886C105.418 75.2593 104.845 75.7927 104.498 76.486C104.178 77.1793 104.018 78.0327 104.018 79.046C104.018 79.846 104.125 80.526 104.338 81.086C104.551 81.6193 104.871 82.0193 105.298 82.286C105.751 82.5527 106.311 82.686 106.978 82.686ZM121.868 84.886V83.286L133.548 65.846H127.428C126.814 65.846 126.321 65.9527 125.948 66.166C125.601 66.3793 125.321 66.726 125.108 67.206C124.921 67.6593 124.734 68.246 124.548 68.966L124.468 69.366H122.588L122.988 63.446H138.868V65.126L127.148 82.486H134.388C134.974 82.486 135.441 82.3527 135.788 82.086C136.134 81.7927 136.401 81.3927 136.588 80.886C136.801 80.3793 136.961 79.8193 137.068 79.206L137.268 78.206H139.148L138.948 84.886H121.868ZM149.253 85.286C148.079 85.286 147.013 85.0593 146.053 84.606C145.119 84.126 144.386 83.4193 143.853 82.486C143.319 81.526 143.053 80.3127 143.053 78.846C143.053 76.7127 143.799 75.1393 145.293 74.126C146.786 73.086 149.066 72.5127 152.133 72.406L155.413 72.286V69.966C155.413 69.006 155.333 68.166 155.173 67.446C155.039 66.726 154.733 66.166 154.253 65.766C153.773 65.3393 153.039 65.126 152.053 65.126C151.119 65.126 150.399 65.3127 149.893 65.686C149.413 66.0593 149.079 66.5793 148.893 67.246C148.733 67.886 148.653 68.6327 148.653 69.486C147.373 69.486 146.399 69.2993 145.733 68.926C145.066 68.526 144.733 67.8593 144.733 66.926C144.733 65.966 145.066 65.206 145.733 64.646C146.426 64.086 147.333 63.6727 148.453 63.406C149.599 63.1393 150.853 63.006 152.213 63.006C154.746 63.006 156.639 63.526 157.893 64.566C159.173 65.606 159.813 67.3793 159.813 69.886V80.206C159.813 80.9527 159.893 81.5393 160.053 81.966C160.213 82.366 160.479 82.6593 160.853 82.846C161.226 83.006 161.706 83.086 162.293 83.086H162.413V84.886H156.453L155.773 81.646H155.413C154.853 82.366 154.306 83.006 153.773 83.566C153.239 84.0993 152.626 84.526 151.933 84.846C151.239 85.1393 150.346 85.286 149.253 85.286ZM150.533 82.686C151.546 82.686 152.413 82.4727 153.133 82.046C153.853 81.5927 154.413 80.9527 154.813 80.126C155.213 79.2993 155.413 78.3393 155.413 77.246V74.086L153.053 74.206C151.666 74.2593 150.573 74.486 149.773 74.886C148.973 75.2593 148.399 75.7927 148.053 76.486C147.733 77.1793 147.573 78.0327 147.573 79.046C147.573 79.846 147.679 80.526 147.893 81.086C148.106 81.6193 148.426 82.0193 148.853 82.286C149.306 82.5527 149.866 82.686 150.533 82.686ZM164.582 84.886V83.086H165.102C165.662 83.086 166.182 83.0193 166.662 82.886C167.142 82.7527 167.529 82.486 167.822 82.086C168.116 81.686 168.262 81.086 168.262 80.286V58.926C168.262 58.1527 168.102 57.5793 167.782 57.206C167.489 56.8327 167.102 56.5927 166.622 56.486C166.142 56.3527 165.636 56.286 165.102 56.286H164.582V54.486H172.662V80.286C172.662 81.086 172.809 81.686 173.102 82.086C173.396 82.486 173.782 82.7527 174.262 82.886C174.769 83.0193 175.289 83.086 175.822 83.086H176.302V84.886H164.582Z" fill="black"/>
</svg>
