<svg width="166" height="79" viewBox="0 0 166 79" fill="none" xmlns="http://www.w3.org/2000/svg">
<path d="M15.9486 1.06767L23.9086 24.1477C25.0286 24.5477 25.8153 25.0143 26.2686 25.5477L25.8686 28.8677H16.5086L16.1086 25.5477C16.4286 25.121 17.0686 24.721 18.0286 24.3477L16.9486 20.9877H8.94863L7.94863 24.2277C8.88197 24.601 9.5753 25.041 10.0286 25.5477L9.62863 28.8677H0.508633L0.108633 25.5477C0.588633 24.9343 1.48197 24.4277 2.78863 24.0277L10.4686 1.06767H15.9486ZM12.6286 6.66768C12.6286 8.29434 12.2953 10.1877 11.6286 12.3477L10.0686 17.3077H15.7886L14.2686 12.4277C13.6553 10.561 13.3086 8.86767 13.2286 7.34767L13.1886 6.66768H12.6286Z" fill="#A01CDE"/>
<path d="M29.9699 11.8277C29.9699 11.4277 29.9832 11.001 30.0099 10.5477C32.4899 9.21434 35.1565 8.54768 38.0099 8.54768C40.8632 8.54768 42.9032 9.09434 44.1299 10.1877C45.3832 11.2543 46.0099 13.041 46.0099 15.5477V24.0677C46.9432 24.2543 47.6766 24.481 48.2099 24.7477V28.2277C46.8499 28.8677 44.9032 29.1877 42.3699 29.1877C42.1032 28.4943 41.8766 27.6543 41.6899 26.6677C40.5432 28.3477 38.4632 29.1877 35.4499 29.1877C33.6632 29.1877 32.1299 28.6677 30.8499 27.6277C29.5965 26.5877 28.9699 25.1743 28.9699 23.3877C28.9699 21.601 29.5565 20.201 30.7299 19.1877C31.9299 18.1477 33.7032 17.6277 36.0499 17.6277H40.4099V15.7077C40.4099 13.6277 39.3032 12.5877 37.0899 12.5877C36.2632 12.5877 35.5832 12.6677 35.0499 12.8277C34.9965 13.9477 34.8365 14.8143 34.5699 15.4277H30.6499C30.1965 14.4943 29.9699 13.2943 29.9699 11.8277ZM37.1699 25.1077C38.5299 25.1077 39.6099 24.7077 40.4099 23.9077V20.6277H37.6099C35.6899 20.6277 34.7299 21.361 34.7299 22.8277C34.7299 23.4943 34.9299 24.041 35.3299 24.4677C35.7565 24.8943 36.3699 25.1077 37.1699 25.1077ZM59.6386 12.1477C57.8786 12.1477 56.9986 12.6677 56.9986 13.7077C56.9986 14.6943 57.9186 15.4277 59.7586 15.9077L62.9186 16.7477C66.172 17.601 67.7986 19.481 67.7986 22.3877C67.7986 24.3877 67.092 26.0277 65.6786 27.3077C64.292 28.561 62.0653 29.1877 58.9986 29.1877C55.9586 29.1877 53.5853 28.761 51.8786 27.9077C51.852 27.6143 51.8386 27.321 51.8386 27.0277C51.8386 25.561 52.132 24.241 52.7186 23.0677H56.0386C56.3853 23.7077 56.612 24.3743 56.7186 25.0677C57.252 25.2277 58.012 25.3077 58.9986 25.3077C61.3453 25.3077 62.5186 24.641 62.5186 23.3077C62.5186 22.881 62.3586 22.5343 62.0386 22.2677C61.7186 21.9743 61.092 21.6943 60.1586 21.4277L56.9986 20.5077C55.372 20.0543 54.1053 19.3877 53.1986 18.5077C52.292 17.601 51.8386 16.281 51.8386 14.5477C51.8386 12.7877 52.5453 11.3477 53.9586 10.2277C55.372 9.10768 57.3853 8.54768 59.9986 8.54768C62.6386 8.54768 64.8653 8.93434 66.6786 9.70767C66.7053 9.97434 66.7186 10.241 66.7186 10.5077C66.7186 11.8943 66.4253 13.1743 65.8386 14.3477H62.5586C62.212 13.7343 61.9853 13.0943 61.8786 12.4277C61.132 12.241 60.3853 12.1477 59.6386 12.1477ZM72.1655 8.86768C73.6588 8.52101 75.0455 8.34768 76.3255 8.34768C77.6055 8.34768 78.6855 8.38767 79.5655 8.46767V24.4277C80.6055 24.8277 81.3388 25.281 81.7655 25.7877L81.3655 28.8677H72.1655L71.7655 25.7877C72.1388 25.281 72.8722 24.8277 73.9655 24.4277V13.3077C73.0322 12.9877 72.2988 12.5343 71.7655 11.9477L72.1655 8.86768ZM76.6855 6.10768C74.4722 6.10768 73.3655 5.10767 73.3655 3.10767C73.3655 1.08101 74.4722 0.0676746 76.6855 0.0676746C78.9255 0.0676746 80.0455 1.08101 80.0455 3.10767C80.0455 5.10767 78.9255 6.10768 76.6855 6.10768ZM90.7652 33.5077C91.2452 33.5077 91.7519 33.0543 92.2852 32.1477C92.8452 31.2677 93.2319 30.2143 93.4452 28.9877L86.8852 13.4677C85.5785 13.041 84.6985 12.5343 84.2452 11.9477L84.6452 8.86768H93.8452L94.2452 11.9477C93.8985 12.3743 93.3119 12.761 92.4852 13.1077L94.6852 19.1477C95.1652 20.401 95.4985 21.641 95.6852 22.8677L95.8052 23.4277H96.3652C96.5785 22.0943 96.9519 20.6943 97.4852 19.2277L99.6052 13.3077C98.6185 12.9343 97.9252 12.481 97.5252 11.9477L97.9252 8.86768H106.725L107.125 11.9477C106.645 12.561 105.765 13.081 104.485 13.5077L97.8852 29.1077C96.6319 32.0677 95.6719 33.9743 95.0052 34.8277C93.8319 36.401 92.1919 37.1877 90.0852 37.1877C88.0052 37.1877 86.4185 36.641 85.3252 35.5477C85.2985 35.281 85.2852 35.0143 85.2852 34.7477C85.2852 33.281 85.5919 31.8943 86.2052 30.5877H89.5252C89.9252 31.3077 90.1519 32.281 90.2052 33.5077H90.7652ZM110.9 11.8277C110.9 11.4277 110.913 11.001 110.94 10.5477C113.42 9.21434 116.086 8.54768 118.94 8.54768C121.793 8.54768 123.833 9.09434 125.06 10.1877C126.313 11.2543 126.94 13.041 126.94 15.5477V24.0677C127.873 24.2543 128.606 24.481 129.14 24.7477V28.2277C127.78 28.8677 125.833 29.1877 123.3 29.1877C123.033 28.4943 122.806 27.6543 122.62 26.6677C121.473 28.3477 119.393 29.1877 116.38 29.1877C114.593 29.1877 113.06 28.6677 111.78 27.6277C110.526 26.5877 109.9 25.1743 109.9 23.3877C109.9 21.601 110.486 20.201 111.66 19.1877C112.86 18.1477 114.633 17.6277 116.98 17.6277H121.34V15.7077C121.34 13.6277 120.233 12.5877 118.02 12.5877C117.193 12.5877 116.513 12.6677 115.98 12.8277C115.926 13.9477 115.766 14.8143 115.5 15.4277H111.58C111.126 14.4943 110.9 13.2943 110.9 11.8277ZM118.1 25.1077C119.46 25.1077 120.54 24.7077 121.34 23.9077V20.6277H118.54C116.62 20.6277 115.66 21.361 115.66 22.8277C115.66 23.4943 115.86 24.041 116.26 24.4677C116.686 24.8943 117.3 25.1077 118.1 25.1077ZM91.0324 60.8277C91.0324 60.4277 91.0457 60.001 91.0724 59.5477C93.5524 58.2143 96.219 57.5477 99.0724 57.5477C101.926 57.5477 103.966 58.0943 105.192 59.1877C106.446 60.2543 107.072 62.041 107.072 64.5477V73.0677C108.006 73.2543 108.739 73.481 109.272 73.7477V77.2277C107.912 77.8677 105.966 78.1877 103.432 78.1877C103.166 77.4943 102.939 76.6543 102.752 75.6677C101.606 77.3477 99.5257 78.1877 96.5124 78.1877C94.7257 78.1877 93.1924 77.6677 91.9124 76.6277C90.659 75.5877 90.0324 74.1743 90.0324 72.3877C90.0324 70.601 90.619 69.201 91.7924 68.1877C92.9924 67.1477 94.7657 66.6277 97.1124 66.6277H101.472V64.7077C101.472 62.6277 100.366 61.5877 98.1524 61.5877C97.3257 61.5877 96.6457 61.6677 96.1124 61.8277C96.059 62.9477 95.899 63.8143 95.6324 64.4277H91.7124C91.259 63.4943 91.0324 62.2943 91.0324 60.8277ZM98.2324 74.1077C99.5924 74.1077 100.672 73.7077 101.472 72.9077V69.6277H98.6724C96.7524 69.6277 95.7924 70.361 95.7924 71.8277C95.7924 72.4943 95.9924 73.041 96.3924 73.4677C96.819 73.8943 97.4324 74.1077 98.2324 74.1077ZM113.341 63.5477C113.048 62.2143 112.901 61.0677 112.901 60.1077C112.901 59.121 112.914 58.3743 112.941 57.8677H129.141L129.541 61.2277L121.741 71.1877C121.021 72.1477 120.234 72.9743 119.381 73.6677L119.581 74.1077C120.354 73.8677 121.434 73.7477 122.821 73.7477H125.021C125.421 72.7877 125.861 72.081 126.341 71.6277L129.421 72.0277C129.714 73.361 129.861 74.5343 129.861 75.5477C129.861 76.561 129.848 77.3343 129.821 77.8677H112.901L112.501 74.5877L120.341 64.5077C121.061 63.5477 121.848 62.721 122.701 62.0277L122.501 61.5877C121.728 61.8277 120.648 61.9477 119.261 61.9477H117.701C117.301 62.8543 116.874 63.521 116.421 63.9477L113.341 63.5477ZM134.642 60.8277C134.642 60.4277 134.655 60.001 134.682 59.5477C137.162 58.2143 139.828 57.5477 142.682 57.5477C145.535 57.5477 147.575 58.0943 148.802 59.1877C150.055 60.2543 150.682 62.041 150.682 64.5477V73.0677C151.615 73.2543 152.348 73.481 152.882 73.7477V77.2277C151.522 77.8677 149.575 78.1877 147.042 78.1877C146.775 77.4943 146.548 76.6543 146.362 75.6677C145.215 77.3477 143.135 78.1877 140.122 78.1877C138.335 78.1877 136.802 77.6677 135.522 76.6277C134.268 75.5877 133.642 74.1743 133.642 72.3877C133.642 70.601 134.228 69.201 135.402 68.1877C136.602 67.1477 138.375 66.6277 140.722 66.6277H145.082V64.7077C145.082 62.6277 143.975 61.5877 141.762 61.5877C140.935 61.5877 140.255 61.6677 139.722 61.8277C139.668 62.9477 139.508 63.8143 139.242 64.4277H135.322C134.868 63.4943 134.642 62.2943 134.642 60.8277ZM141.842 74.1077C143.202 74.1077 144.282 73.7077 145.082 72.9077V69.6277H142.282C140.362 69.6277 139.402 70.361 139.402 71.8277C139.402 72.4943 139.602 73.041 140.002 73.4677C140.428 73.8943 141.042 74.1077 141.842 74.1077ZM156.231 49.4677C157.724 49.121 159.111 48.9477 160.391 48.9477C161.671 48.9477 162.751 48.9877 163.631 49.0677V73.4277C164.671 73.8277 165.404 74.281 165.831 74.7877L165.431 77.8677H156.231L155.831 74.7877C156.204 74.281 156.937 73.8277 158.031 73.4277V53.9077C157.097 53.5877 156.364 53.1343 155.831 52.5477L156.231 49.4677Z" fill="black"/>
<path d="M86.1749 50.2677V57.2277L83.2149 57.5877C82.6016 57.0543 82.1082 56.0677 81.7349 54.6277H75.4949V61.9077H81.0549C81.3749 61.1077 81.7082 60.5477 82.0549 60.2277L84.5749 60.5077V67.6277L82.0549 67.9477C81.7082 67.681 81.3749 67.121 81.0549 66.2677H75.4949V72.9077C77.2815 73.3077 78.5749 73.8543 79.3749 74.5477L78.9749 77.8677H67.9349L67.5349 74.5477C67.8815 74.0943 68.6149 73.6543 69.7349 73.2277V54.9477C68.6415 54.5477 67.9082 54.0943 67.5349 53.5877L67.9349 50.2677H86.1749Z" fill="#A01CDE"/>
</svg>
