<svg width="159" height="77" viewBox="0 0 159 77" fill="none" xmlns="http://www.w3.org/2000/svg">
<path d="M23.9609 23.2993L15.4648 0.0766602H12.75L4.37109 22.8501C3.94141 23.9829 3.55729 24.8423 3.21875 25.4282C2.89323 26.0011 2.5026 26.4048 2.04688 26.6392C1.60417 26.8735 0.979167 27.0363 0.171875 27.1274V28.2798H8.62891V27.1274C7.6263 26.9972 6.89714 26.8084 6.44141 26.561C5.9987 26.3006 5.78385 25.897 5.79688 25.3501C5.8099 24.7902 5.99219 23.9894 6.34375 22.9478L13.082 3.43604H12.5742L19.5664 23.2798C19.9049 24.2173 20.0612 24.9465 20.0352 25.4673C20.0221 25.9751 19.7943 26.3527 19.3516 26.6001C18.9089 26.8345 18.2057 27.0103 17.2422 27.1274V28.2798H27.9258V27.1274C27.1706 27.0363 26.5651 26.88 26.1094 26.6587C25.6667 26.4373 25.2891 26.0728 24.9766 25.5649C24.6641 25.0441 24.3255 24.2889 23.9609 23.2993ZM7.14453 18.3774H19.6836L19.1367 16.8931H7.69141L7.14453 18.3774ZM87.2617 48.0767H67.3008V49.229C68.2383 49.3332 68.9284 49.4634 69.3711 49.6196C69.8268 49.7759 70.1198 50.0103 70.25 50.3228C70.3932 50.6222 70.4648 51.0649 70.4648 51.6509V72.7056C70.4648 73.2915 70.3932 73.7407 70.25 74.0532C70.1198 74.3527 69.8268 74.5806 69.3711 74.7368C68.9284 74.8931 68.2383 75.0233 67.3008 75.1274V76.2798H78.043V75.1274C77.0273 75.0233 76.2721 74.8866 75.7773 74.7173C75.2956 74.535 74.9766 74.2681 74.8203 73.9165C74.6771 73.5649 74.6055 73.0767 74.6055 72.4517V62.647L79.6641 62.7056C80.263 62.7186 80.7318 62.8293 81.0703 63.0376C81.4219 63.2329 81.7018 63.6105 81.9102 64.1704C82.1185 64.7303 82.3138 65.5441 82.4961 66.6118H83.4922V57.3345H82.4961C82.2747 58.4152 82.0534 59.242 81.832 59.8149C81.6237 60.3748 81.3503 60.7524 81.0117 60.9478C80.6862 61.1431 80.237 61.2472 79.6641 61.2603L74.6055 61.2993V49.4243L79.1367 49.5806C80.7253 49.6326 81.9948 49.8084 82.9453 50.1079C83.8958 50.4074 84.6315 50.9347 85.1523 51.6899C85.6862 52.4321 86.1159 53.5129 86.4414 54.9321H87.5156L87.2617 48.0767Z" fill="#9B9785"/>
<path d="M35.1523 28.6704C36.1029 28.6704 36.9883 28.5402 37.8086 28.2798C38.6289 28.0324 39.3451 27.6938 39.957 27.2642C40.569 26.8215 41.0508 26.3462 41.4023 25.8384C41.5456 26.4243 41.7799 26.9191 42.1055 27.3228C42.444 27.7264 42.8672 28.0389 43.375 28.2603C43.8828 28.4686 44.4622 28.5728 45.1133 28.5728C45.7773 28.5728 46.3698 28.4816 46.8906 28.2993C47.4115 28.117 47.8346 27.9217 48.1602 27.7134V26.6392C47.8867 26.7563 47.5482 26.8149 47.1445 26.8149C46.5456 26.8149 46.0378 26.6326 45.6211 26.2681C45.2174 25.9035 45.0156 25.285 45.0156 24.4126V14.5884C45.0156 12.5311 44.3646 11.0207 43.0625 10.0571C41.7604 9.09359 40.0286 8.61182 37.8672 8.61182C36.4349 8.61182 35.1263 8.80062 33.9414 9.17822C32.7695 9.55583 31.832 10.0767 31.1289 10.7407C30.4388 11.4048 30.0938 12.1665 30.0938 13.0259C30.0938 13.6248 30.3021 14.1196 30.7188 14.5103C31.1354 14.9009 31.6367 15.0962 32.2227 15.0962C32.8216 15.0962 33.3229 14.9074 33.7266 14.5298C34.1432 14.1522 34.3516 13.6769 34.3516 13.104C34.3516 12.5311 34.1562 12.0493 33.7656 11.6587C33.388 11.255 32.9388 11.0532 32.418 11.0532C31.9232 11.0532 31.487 11.2811 31.1094 11.7368C30.7448 12.1795 30.556 12.7199 30.543 13.3579H31.3242C31.4805 12.6938 31.806 12.134 32.3008 11.6782C32.7956 11.2095 33.4076 10.8579 34.1367 10.6235C34.8659 10.3892 35.6602 10.272 36.5195 10.272C37.9388 10.272 39.0911 10.63 39.9766 11.3462C40.862 12.0493 41.3047 13.2993 41.3047 15.0962V24.647C40.875 25.285 40.2956 25.7863 39.5664 26.1509C38.8372 26.5024 38.0169 26.6782 37.1055 26.6782C36.0117 26.6782 35.1068 26.3722 34.3906 25.7603C33.6875 25.1353 33.3359 24.2629 33.3359 23.1431C33.3359 22.4139 33.5052 21.7824 33.8438 21.2485C34.1823 20.7017 34.7422 20.2329 35.5234 19.8423C36.3047 19.4386 37.3529 19.0936 38.668 18.8071L42.8281 17.9087V16.5024L36.9297 17.7915C35.1719 18.1691 33.7461 18.6313 32.6523 19.1782C31.5586 19.7251 30.7578 20.3826 30.25 21.1509C29.7422 21.9061 29.4883 22.7915 29.4883 23.8071C29.4883 25.2394 30.0286 26.4113 31.1094 27.3228C32.1901 28.2212 33.5378 28.6704 35.1523 28.6704ZM50.6406 14.0806C50.6406 15.578 51.1484 16.7759 52.1641 17.6743C53.1797 18.5728 54.5664 19.2759 56.3242 19.7837L57.8672 20.2329C59.2214 20.6235 60.1914 21.0923 60.7773 21.6392C61.3763 22.186 61.6758 22.9087 61.6758 23.8071C61.6758 24.7446 61.2982 25.5194 60.543 26.1313C59.8008 26.7303 58.7917 27.0298 57.5156 27.0298C56.5911 27.0298 55.7122 26.841 54.8789 26.4634C54.0586 26.0858 53.349 25.5194 52.75 24.7642C52.151 23.9959 51.7344 23.0389 51.5 21.8931H50.4258L50.6016 26.9321C51.0573 27.2446 51.6367 27.5311 52.3398 27.7915C53.043 28.0389 53.8307 28.2342 54.7031 28.3774C55.5885 28.5337 56.5326 28.6118 57.5352 28.6118C58.8633 28.6118 60.0938 28.384 61.2266 27.9282C62.3594 27.4725 63.2708 26.8215 63.9609 25.9751C64.651 25.1157 64.9961 24.1066 64.9961 22.9478C64.9961 21.3853 64.5013 20.1353 63.5117 19.1978C62.5221 18.2603 61.1484 17.5376 59.3906 17.0298L57.8477 16.5806C56.6237 16.229 55.6667 15.8058 54.9766 15.311C54.2865 14.8162 53.9414 14.1131 53.9414 13.2017C53.9414 12.2772 54.306 11.548 55.0352 11.0142C55.7773 10.4673 56.7604 10.1938 57.9844 10.1938C59.2734 10.1938 60.3867 10.591 61.3242 11.3853C62.2617 12.1665 62.8672 13.3123 63.1406 14.8228H64.2148L64.0781 9.979C63.5573 9.62744 62.7695 9.31494 61.7148 9.0415C60.6732 8.75505 59.4232 8.61182 57.9648 8.61182C56.5195 8.61182 55.2435 8.82666 54.1367 9.25635C53.043 9.68604 52.1836 10.311 51.5586 11.1313C50.9466 11.9386 50.6406 12.9217 50.6406 14.0806ZM74.4297 8.7876L67.9844 9.54932V10.5649L69.3906 10.936C69.9375 11.0793 70.2826 11.2485 70.4258 11.4438C70.582 11.6392 70.6602 11.9907 70.6602 12.4985V25.311C70.6602 25.936 70.5104 26.3592 70.2109 26.5806C69.9115 26.8019 69.1693 26.9842 67.9844 27.1274V28.2798H77.1055V27.1274C75.9206 26.9842 75.1784 26.8019 74.8789 26.5806C74.5794 26.3592 74.4297 25.936 74.4297 25.311V8.7876ZM72.1445 4.92041C72.8086 4.92041 73.375 4.69906 73.8438 4.25635C74.3125 3.81364 74.5469 3.25374 74.5469 2.57666C74.5469 1.93864 74.3125 1.39827 73.8438 0.955566C73.375 0.499837 72.8086 0.271973 72.1445 0.271973C71.4805 0.271973 70.9141 0.499837 70.4453 0.955566C69.9766 1.39827 69.7422 1.93864 69.7422 2.57666C69.7422 3.25374 69.9766 3.81364 70.4453 4.25635C70.9141 4.69906 71.4805 4.92041 72.1445 4.92041ZM81.4609 13.2798L87.4961 28.104C86.9883 29.1326 86.4349 30.2069 85.8359 31.3267C85.237 32.4595 84.6445 33.5402 84.0586 34.5688C83.4727 35.5975 82.9388 36.4764 82.457 37.2056V37.2642H85.8359L89.0195 28.2993L90.5234 24.6079L95.0547 13.5728C95.4193 12.6483 95.7448 11.9647 96.0312 11.522C96.3177 11.0662 96.6432 10.7537 97.0078 10.5845C97.3724 10.4022 97.8607 10.259 98.4727 10.1548V9.00244H91.3047V10.1548C92.151 10.2459 92.776 10.3826 93.1797 10.5649C93.5833 10.7472 93.7917 11.0467 93.8047 11.4634C93.8307 11.88 93.694 12.4855 93.3945 13.2798L89.0391 24.6079H89.7031L85.4453 13.2212C85.0156 12.0623 84.9375 11.3006 85.2109 10.936C85.4974 10.5584 86.2721 10.298 87.5352 10.1548V9.00244H78.1992V10.1548C78.7982 10.285 79.2734 10.4412 79.625 10.6235C79.9896 10.8058 80.3086 11.0988 80.582 11.5024C80.8555 11.9061 81.1484 12.4985 81.4609 13.2798ZM106.012 28.6704C106.962 28.6704 107.848 28.5402 108.668 28.2798C109.488 28.0324 110.204 27.6938 110.816 27.2642C111.428 26.8215 111.91 26.3462 112.262 25.8384C112.405 26.4243 112.639 26.9191 112.965 27.3228C113.303 27.7264 113.727 28.0389 114.234 28.2603C114.742 28.4686 115.322 28.5728 115.973 28.5728C116.637 28.5728 117.229 28.4816 117.75 28.2993C118.271 28.117 118.694 27.9217 119.02 27.7134V26.6392C118.746 26.7563 118.408 26.8149 118.004 26.8149C117.405 26.8149 116.897 26.6326 116.48 26.2681C116.077 25.9035 115.875 25.285 115.875 24.4126V14.5884C115.875 12.5311 115.224 11.0207 113.922 10.0571C112.62 9.09359 110.888 8.61182 108.727 8.61182C107.294 8.61182 105.986 8.80062 104.801 9.17822C103.629 9.55583 102.691 10.0767 101.988 10.7407C101.298 11.4048 100.953 12.1665 100.953 13.0259C100.953 13.6248 101.161 14.1196 101.578 14.5103C101.995 14.9009 102.496 15.0962 103.082 15.0962C103.681 15.0962 104.182 14.9074 104.586 14.5298C105.003 14.1522 105.211 13.6769 105.211 13.104C105.211 12.5311 105.016 12.0493 104.625 11.6587C104.247 11.255 103.798 11.0532 103.277 11.0532C102.783 11.0532 102.346 11.2811 101.969 11.7368C101.604 12.1795 101.415 12.7199 101.402 13.3579H102.184C102.34 12.6938 102.665 12.134 103.16 11.6782C103.655 11.2095 104.267 10.8579 104.996 10.6235C105.725 10.3892 106.52 10.272 107.379 10.272C108.798 10.272 109.951 10.63 110.836 11.3462C111.721 12.0493 112.164 13.2993 112.164 15.0962V24.647C111.734 25.285 111.155 25.7863 110.426 26.1509C109.697 26.5024 108.876 26.6782 107.965 26.6782C106.871 26.6782 105.966 26.3722 105.25 25.7603C104.547 25.1353 104.195 24.2629 104.195 23.1431C104.195 22.4139 104.365 21.7824 104.703 21.2485C105.042 20.7017 105.602 20.2329 106.383 19.8423C107.164 19.4386 108.212 19.0936 109.527 18.8071L113.688 17.9087V16.5024L107.789 17.7915C106.031 18.1691 104.605 18.6313 103.512 19.1782C102.418 19.7251 101.617 20.3826 101.109 21.1509C100.602 21.9061 100.348 22.7915 100.348 23.8071C100.348 25.2394 100.888 26.4113 101.969 27.3228C103.049 28.2212 104.397 28.6704 106.012 28.6704ZM95.9336 76.6704C96.8841 76.6704 97.7695 76.5402 98.5898 76.2798C99.4102 76.0324 100.126 75.6938 100.738 75.2642C101.35 74.8215 101.832 74.3462 102.184 73.8384C102.327 74.4243 102.561 74.9191 102.887 75.3228C103.225 75.7264 103.648 76.0389 104.156 76.2603C104.664 76.4686 105.243 76.5728 105.895 76.5728C106.559 76.5728 107.151 76.4816 107.672 76.2993C108.193 76.117 108.616 75.9217 108.941 75.7134V74.6392C108.668 74.7563 108.329 74.8149 107.926 74.8149C107.327 74.8149 106.819 74.6326 106.402 74.2681C105.999 73.9035 105.797 73.285 105.797 72.4126V62.5884C105.797 60.5311 105.146 59.0207 103.844 58.0571C102.542 57.0936 100.81 56.6118 98.6484 56.6118C97.2161 56.6118 95.9076 56.8006 94.7227 57.1782C93.5508 57.5558 92.6133 58.0767 91.9102 58.7407C91.2201 59.4048 90.875 60.1665 90.875 61.0259C90.875 61.6248 91.0833 62.1196 91.5 62.5103C91.9167 62.9009 92.418 63.0962 93.0039 63.0962C93.6029 63.0962 94.1042 62.9074 94.5078 62.5298C94.9245 62.1522 95.1328 61.6769 95.1328 61.104C95.1328 60.5311 94.9375 60.0493 94.5469 59.6587C94.1693 59.255 93.7201 59.0532 93.1992 59.0532C92.7044 59.0532 92.2682 59.2811 91.8906 59.7368C91.526 60.1795 91.3372 60.7199 91.3242 61.3579H92.1055C92.2617 60.6938 92.5872 60.134 93.082 59.6782C93.5768 59.2095 94.1888 58.8579 94.918 58.6235C95.6471 58.3892 96.4414 58.272 97.3008 58.272C98.7201 58.272 99.8724 58.63 100.758 59.3462C101.643 60.0493 102.086 61.2993 102.086 63.0962V72.647C101.656 73.285 101.077 73.7863 100.348 74.1509C99.6185 74.5024 98.7982 74.6782 97.8867 74.6782C96.793 74.6782 95.888 74.3722 95.1719 73.7603C94.4688 73.1353 94.1172 72.2629 94.1172 71.1431C94.1172 70.4139 94.2865 69.7824 94.625 69.2485C94.9635 68.7017 95.5234 68.2329 96.3047 67.8423C97.0859 67.4386 98.1341 67.0936 99.4492 66.8071L103.609 65.9087V64.5024L97.7109 65.7915C95.9531 66.1691 94.5273 66.6313 93.4336 67.1782C92.3398 67.7251 91.5391 68.3826 91.0312 69.1509C90.5234 69.9061 90.2695 70.7915 90.2695 71.8071C90.2695 73.2394 90.8099 74.4113 91.8906 75.3228C92.9714 76.2212 94.319 76.6704 95.9336 76.6704ZM110.934 57.0024L110.758 62.6079H111.832C112.105 61.4881 112.424 60.6418 112.789 60.0688C113.167 59.4959 113.674 59.0988 114.312 58.8774C114.964 58.6561 115.849 58.5259 116.969 58.4868L122.672 58.2915L122.027 57.5884L110.582 75.2251V76.2798H125.992L126.148 70.2446H125.094C124.846 71.5207 124.534 72.4777 124.156 73.1157C123.779 73.7407 123.284 74.1704 122.672 74.4048C122.073 74.6261 121.285 74.7498 120.309 74.7759L113.824 75.0103L114.488 75.6353L126.012 58.0571V57.0024H110.934ZM134.84 76.6704C135.79 76.6704 136.676 76.5402 137.496 76.2798C138.316 76.0324 139.033 75.6938 139.645 75.2642C140.257 74.8215 140.738 74.3462 141.09 73.8384C141.233 74.4243 141.467 74.9191 141.793 75.3228C142.132 75.7264 142.555 76.0389 143.062 76.2603C143.57 76.4686 144.15 76.5728 144.801 76.5728C145.465 76.5728 146.057 76.4816 146.578 76.2993C147.099 76.117 147.522 75.9217 147.848 75.7134V74.6392C147.574 74.7563 147.236 74.8149 146.832 74.8149C146.233 74.8149 145.725 74.6326 145.309 74.2681C144.905 73.9035 144.703 73.285 144.703 72.4126V62.5884C144.703 60.5311 144.052 59.0207 142.75 58.0571C141.448 57.0936 139.716 56.6118 137.555 56.6118C136.122 56.6118 134.814 56.8006 133.629 57.1782C132.457 57.5558 131.52 58.0767 130.816 58.7407C130.126 59.4048 129.781 60.1665 129.781 61.0259C129.781 61.6248 129.99 62.1196 130.406 62.5103C130.823 62.9009 131.324 63.0962 131.91 63.0962C132.509 63.0962 133.01 62.9074 133.414 62.5298C133.831 62.1522 134.039 61.6769 134.039 61.104C134.039 60.5311 133.844 60.0493 133.453 59.6587C133.076 59.255 132.626 59.0532 132.105 59.0532C131.611 59.0532 131.174 59.2811 130.797 59.7368C130.432 60.1795 130.243 60.7199 130.23 61.3579H131.012C131.168 60.6938 131.493 60.134 131.988 59.6782C132.483 59.2095 133.095 58.8579 133.824 58.6235C134.553 58.3892 135.348 58.272 136.207 58.272C137.626 58.272 138.779 58.63 139.664 59.3462C140.549 60.0493 140.992 61.2993 140.992 63.0962V72.647C140.562 73.285 139.983 73.7863 139.254 74.1509C138.525 74.5024 137.704 74.6782 136.793 74.6782C135.699 74.6782 134.794 74.3722 134.078 73.7603C133.375 73.1353 133.023 72.2629 133.023 71.1431C133.023 70.4139 133.193 69.7824 133.531 69.2485C133.87 68.7017 134.43 68.2329 135.211 67.8423C135.992 67.4386 137.04 67.0936 138.355 66.8071L142.516 65.9087V64.5024L136.617 65.7915C134.859 66.1691 133.434 66.6313 132.34 67.1782C131.246 67.7251 130.445 68.3826 129.938 69.1509C129.43 69.9061 129.176 70.7915 129.176 71.8071C129.176 73.2394 129.716 74.4113 130.797 75.3228C131.878 76.2212 133.225 76.6704 134.84 76.6704ZM155.836 47.3149L149.391 48.0767V49.0728L150.797 49.4438C151.344 49.6001 151.689 49.7759 151.832 49.9712C151.988 50.1535 152.066 50.5116 152.066 51.0454V73.311C152.066 73.936 151.917 74.3592 151.617 74.5806C151.318 74.8019 150.576 74.9842 149.391 75.1274V76.2798H158.512V75.1274C157.327 74.9842 156.585 74.8019 156.285 74.5806C155.986 74.3592 155.836 73.936 155.836 73.311V47.3149Z" fill="black"/>
</svg>
